FontsManager.addFont({"glyphs":{"S":{"x_min":35,"x_max":947,"ha":950,"o":"m 396 -18 q 209 2 298 -18 q 35 66 120 23 l 67 220 l 77 220 q 236 125 142 158 q 419 93 331 93 q 641 150 564 93 q 718 295 718 207 q 690 373 718 342 q 610 419 663 405 q 505 443 566 432 q 389 467 444 454 q 225 548 283 491 q 167 691 167 606 q 289 932 167 836 q 605 1028 411 1028 q 798 1006 711 1028 q 947 954 884 984 l 916 810 l 906 810 q 769 885 858 853 q 581 917 680 917 q 384 862 458 917 q 311 725 311 808 q 337 647 311 680 q 431 596 363 613 q 547 571 475 586 q 667 543 619 556 q 814 465 764 517 q 864 333 864 413 q 831 201 864 267 q 740 89 798 135 q 594 10 678 38 q 396 -18 510 -18 "},"/":{"x_min":-126,"x_max":707,"ha":631,"o":"m 707 1055 l -4 -206 l -126 -206 l 583 1055 l 707 1055 "},"ђ":{"x_min":38,"x_max":797,"ha":879,"o":"m 465 -79 q 536 42 504 -33 q 597 230 569 119 q 611 285 604 256 q 623 335 619 315 q 644 438 630 370 q 658 548 658 506 q 632 634 658 605 q 530 664 605 664 q 417 634 479 664 q 297 565 356 605 l 166 0 l 38 0 l 237 863 l 124 863 l 144 951 l 257 951 l 281 1055 l 410 1055 l 386 951 l 604 951 l 583 863 l 366 863 l 322 674 q 456 751 393 724 q 587 779 520 779 q 740 729 684 779 q 797 585 797 680 q 782 475 797 545 q 751 334 767 404 q 733 258 742 293 q 714 182 725 224 q 635 -29 683 58 q 525 -170 586 -116 q 396 -249 462 -225 q 257 -273 330 -273 q 233 -273 241 -273 q 197 -271 225 -273 l 222 -164 l 268 -164 q 378 -144 330 -164 q 465 -79 426 -125 "},"y":{"x_min":34.484375,"x_max":858,"ha":821,"o":"m 175 -279 l 34 -279 l 255 43 l 118 758 l 248 758 l 355 192 l 719 758 l 858 758 l 175 -279 "},"≈":{"x_min":194,"x_max":1001,"ha":1137,"o":"m 1000 749 q 924 550 986 617 q 755 483 863 483 q 656 508 703 483 q 570 564 608 533 q 490 618 525 600 q 426 637 454 637 q 346 604 375 637 q 298 488 317 571 l 194 488 q 270 677 209 611 q 439 744 331 744 q 536 718 487 744 q 624 662 584 693 q 702 609 667 629 q 768 590 738 590 q 851 627 820 590 q 894 749 881 664 l 1000 749 m 1001 399 q 924 208 984 274 q 755 142 865 142 q 657 167 706 142 q 570 223 608 192 q 500 270 543 244 q 425 296 456 296 q 342 258 372 296 q 300 137 313 221 l 194 137 q 269 335 206 267 q 438 403 331 403 q 537 377 490 403 q 623 321 584 352 q 689 275 647 302 q 768 249 731 249 q 847 282 819 249 q 895 399 876 316 l 1001 399 "},"‗":{"x_min":-157,"x_max":785,"ha":883,"o":"m 785 -56 l 766 -137 l -122 -137 l -103 -56 l 785 -56 m 750 -205 l 731 -286 l -157 -286 l -138 -205 l 750 -205 "},"g":{"x_min":14,"x_max":824.453125,"ha":863,"o":"m 824 758 l 670 84 q 523 -196 625 -107 q 240 -286 421 -286 q 122 -277 181 -286 q 14 -253 63 -268 l 43 -127 l 49 -127 q 152 -159 87 -143 q 273 -175 216 -175 q 383 -158 338 -175 q 457 -113 428 -141 q 503 -47 485 -84 q 532 37 521 -9 l 547 103 q 426 34 478 57 q 293 12 374 12 q 120 79 182 12 q 58 269 58 146 q 90 460 58 368 q 180 625 122 553 q 315 736 236 694 q 484 779 394 779 q 601 764 549 779 q 690 725 652 749 l 706 758 l 824 758 m 666 621 q 577 656 623 643 q 484 669 531 669 q 363 638 417 669 q 268 555 308 608 q 210 433 231 504 q 190 292 190 363 q 226 168 190 212 q 344 125 263 125 q 458 148 400 125 q 572 208 516 172 l 666 621 "},"е":{"x_min":60,"x_max":782,"ha":827,"o":"m 650 462 q 655 495 654 481 q 657 525 657 508 q 617 638 657 597 q 490 679 577 679 q 318 619 393 679 q 217 462 244 559 l 650 462 m 396 -18 q 149 56 238 -18 q 60 272 60 130 q 191 629 60 480 q 516 779 322 779 q 713 714 645 779 q 782 534 782 650 q 776 470 782 514 q 757 368 770 426 l 199 368 q 193 329 195 348 q 192 293 192 310 q 250 142 192 197 q 416 88 308 88 q 569 117 490 88 q 702 183 648 146 l 710 183 l 682 45 q 621 23 648 33 q 552 2 594 13 q 477 -12 510 -7 q 396 -18 444 -18 "},"–":{"x_min":106,"x_max":806,"ha":883,"o":"m 781 387 l 106 387 l 130 496 l 806 496 l 781 387 "},"б":{"x_min":72,"x_max":866,"ha":853,"o":"m 713 666 q 771 584 750 634 q 793 469 793 534 q 758 269 793 361 q 662 114 723 178 q 523 13 599 47 q 358 -21 448 -21 q 148 61 225 -21 q 72 305 72 143 q 85 458 72 376 q 129 633 99 539 q 201 798 157 720 q 303 924 246 877 q 453 1005 363 974 q 680 1048 542 1036 q 781 1056 735 1053 q 866 1062 828 1059 l 843 952 q 753 945 801 949 q 665 938 706 941 q 517 911 597 932 q 384 846 436 890 q 315 767 350 819 q 259 645 281 716 q 387 707 317 682 q 526 732 457 732 q 630 715 583 732 q 713 666 678 698 m 659 438 q 611 575 659 528 q 477 622 564 622 q 353 601 417 622 q 237 551 289 581 q 212 431 223 502 q 202 316 202 361 q 217 202 202 247 q 258 131 233 156 q 317 95 283 105 q 384 85 350 85 q 582 189 505 85 q 659 438 659 294 "},"e":{"x_min":60,"x_max":782,"ha":827,"o":"m 650 462 q 655 495 654 481 q 657 525 657 508 q 617 638 657 597 q 490 679 577 679 q 318 619 393 679 q 217 462 244 559 l 650 462 m 396 -18 q 149 56 238 -18 q 60 272 60 130 q 191 629 60 480 q 516 779 322 779 q 713 714 645 779 q 782 534 782 650 q 776 470 782 514 q 757 368 770 426 l 199 368 q 193 329 195 348 q 192 293 192 310 q 250 142 192 197 q 416 88 308 88 q 569 117 490 88 q 702 183 648 146 l 710 183 l 682 45 q 621 23 648 33 q 552 2 594 13 q 477 -12 510 -7 q 396 -18 444 -18 "},"у":{"x_min":34.484375,"x_max":858,"ha":821,"o":"m 175 -279 l 34 -279 l 255 43 l 118 758 l 248 758 l 355 192 l 719 758 l 858 758 l 175 -279 "},"J":{"x_min":-53,"x_max":652,"ha":631,"o":"m 480 262 q 352 57 449 129 q 119 -14 256 -14 q 34 -8 87 -14 q -53 5 -18 -2 l -24 127 l -17 127 q 47 107 9 117 q 127 97 85 97 q 229 112 189 97 q 293 156 270 128 q 332 225 317 185 q 356 314 346 266 l 492 908 l 273 908 l 296 1010 l 652 1010 l 480 262 "},"Ј":{"x_min":-53,"x_max":652,"ha":631,"o":"m 480 262 q 352 57 449 129 q 119 -14 256 -14 q 34 -8 87 -14 q -53 5 -18 -2 l -24 127 l -17 127 q 47 107 9 117 q 127 97 85 97 q 229 112 189 97 q 293 156 270 128 q 332 225 317 185 q 356 314 346 266 l 492 908 l 273 908 l 296 1010 l 652 1010 l 480 262 "},"∆":{"x_min":-40,"x_max":902,"ha":1009,"o":"m 902 0 l -40 0 l 574 1010 l 754 1010 l 902 0 m 753 109 l 639 890 l 165 109 l 753 109 "},"‾":{"x_min":172,"x_max":1079,"ha":883,"o":"m 1079 1213 l 1060 1132 l 172 1132 l 190 1213 l 1079 1213 "},"Ѓ":{"x_min":48,"x_max":935,"ha":787,"o":"m 908 896 l 391 896 l 183 0 l 48 0 l 281 1010 l 935 1010 l 908 896 m 869 1390 l 627 1136 l 522 1136 l 694 1390 l 869 1390 "},"≥":{"x_min":211,"x_max":994,"ha":1137,"o":"m 994 533 l 211 206 l 211 330 l 812 575 l 211 820 l 211 945 l 994 617 l 994 533 m 994 0 l 211 0 l 211 109 l 994 109 l 994 0 "},"ў":{"x_min":34.484375,"x_max":858,"ha":821,"o":"m 175 -279 l 34 -279 l 255 43 l 118 758 l 248 758 l 355 192 l 719 758 l 858 758 l 175 -279 m 751 1056 q 656 898 728 954 q 472 843 585 843 q 320 888 370 843 q 270 1007 270 933 q 271 1031 270 1021 q 274 1056 272 1042 l 387 1056 q 384 1033 385 1046 q 383 1010 383 1021 q 408 940 383 963 q 483 917 434 917 q 580 950 543 917 q 633 1056 618 984 l 751 1056 "},"^":{"x_min":160,"x_max":1044,"ha":1137,"o":"m 1044 464 l 909 464 l 601 888 l 293 463 l 160 463 l 559 1010 l 644 1010 l 1044 464 "},"ґ":{"x_min":37,"x_max":792,"ha":654,"o":"m 711 656 l 317 656 l 165 0 l 37 0 l 212 758 l 616 758 l 673 1008 l 792 1008 l 711 656 "},"D":{"x_min":48,"x_max":1030,"ha":1063,"o":"m 1030 622 q 945 309 1030 457 q 716 80 861 161 q 532 16 626 32 q 320 0 439 0 l 48 0 l 281 1010 l 516 1010 q 716 994 626 1010 q 882 929 807 979 q 992 803 954 881 q 1030 622 1030 725 m 888 611 q 860 744 888 688 q 777 837 833 800 q 659 886 722 873 q 501 899 597 899 l 389 899 l 207 111 l 347 111 q 520 126 444 111 q 664 181 597 142 q 831 361 774 243 q 888 611 888 478 "},"∙":{"x_min":163,"x_max":371,"ha":505,"o":"m 326 347 l 163 347 l 207 539 l 371 539 l 326 347 "},"к":{"x_min":43,"x_max":848,"ha":822,"o":"m 734 0 l 579 0 l 325 350 l 253 350 l 172 0 l 43 0 l 218 758 l 347 758 l 271 429 q 368 448 324 429 q 456 527 412 468 q 484 567 469 545 q 510 607 498 589 q 614 715 555 673 q 789 758 673 758 l 848 758 l 823 652 l 770 652 q 681 625 717 652 q 607 544 644 599 q 524 446 566 481 q 441 394 482 411 l 734 0 "},"ц":{"x_min":38,"x_max":841.8125,"ha":895,"o":"m 641 0 l 38 0 l 213 758 l 342 758 l 190 102 l 560 102 l 713 758 l 841 758 l 689 102 l 784 102 l 718 -182 l 598 -182 l 641 0 "},"Л":{"x_min":-73,"x_max":1031.484375,"ha":1020,"o":"m 869 896 l 502 896 q 464 743 484 824 q 430 609 444 663 q 369 398 399 488 q 312 253 339 309 q 258 154 285 194 q 206 88 231 114 q 106 16 156 35 q 0 -2 56 -2 q -39 0 -14 -2 q -73 0 -64 0 l -43 128 l -33 128 q -13 126 -26 127 q 10 126 0 126 q 58 134 34 126 q 100 157 82 142 q 206 317 158 204 q 306 632 254 431 q 348 798 325 704 q 400 1010 371 891 l 1031 1010 l 797 0 l 662 0 l 869 896 "},"w":{"x_min":131,"x_max":1157,"ha":1137,"o":"m 1157 758 l 804 0 l 685 0 l 609 585 l 296 0 l 178 0 l 131 758 l 261 758 l 280 171 l 590 758 l 696 758 l 770 170 l 1023 758 l 1157 758 "},"$":{"x_min":41,"x_max":847,"ha":883,"o":"m 405 0 l 348 -245 l 268 -245 l 323 -3 q 167 16 239 -2 q 41 61 94 34 l 70 185 l 80 185 q 116 158 95 172 q 175 130 137 144 q 248 106 204 117 q 346 94 293 96 l 415 393 q 374 402 393 398 q 333 413 355 407 q 202 487 243 438 q 162 600 162 537 q 258 791 162 712 q 524 884 354 870 l 567 1069 l 647 1069 l 605 886 q 738 867 673 883 q 847 831 803 850 l 817 709 l 808 709 q 706 765 761 744 q 582 791 652 786 l 514 493 q 550 484 530 489 q 592 474 571 479 q 723 406 678 451 q 768 294 768 361 q 672 94 768 174 q 405 0 576 15 m 437 504 l 502 790 q 349 738 403 782 q 295 623 295 693 q 326 551 295 579 q 437 504 357 522 m 634 263 q 599 339 634 311 q 491 380 565 366 l 426 95 q 579 143 524 102 q 634 263 634 184 "},"∫":{"x_min":123,"x_max":822,"ha":883,"o":"m 822 927 l 815 927 q 754 939 793 932 q 693 947 715 947 q 570 905 606 947 q 535 763 535 864 l 535 2 q 464 -211 535 -137 q 265 -286 393 -286 q 193 -282 230 -286 q 123 -271 156 -278 l 123 -151 l 129 -151 q 188 -163 152 -156 q 248 -171 225 -171 q 371 -129 335 -171 q 407 12 407 -88 l 407 773 q 477 987 407 912 q 676 1062 548 1062 q 750 1058 716 1062 q 822 1047 785 1054 l 822 927 "},"\\":{"x_min":169,"x_max":546,"ha":631,"o":"m 546 -206 l 432 -206 l 169 1055 l 284 1055 l 546 -206 "},"о":{"x_min":60,"x_max":783,"ha":843,"o":"m 783 489 q 751 294 783 388 q 663 131 720 200 q 527 19 604 59 q 346 -21 449 -21 q 135 56 211 -21 q 60 268 60 133 q 90 462 60 370 q 180 627 121 555 q 318 737 236 696 q 497 779 400 779 q 705 704 628 779 q 783 489 783 629 m 575 203 q 631 329 612 257 q 651 479 651 400 q 605 624 651 575 q 476 673 559 673 q 358 641 410 673 q 268 554 306 609 q 211 428 231 501 q 192 279 192 356 q 237 135 192 185 q 366 85 283 85 q 485 116 432 85 q 575 203 538 147 "},"Д":{"x_min":-134.234375,"x_max":1026,"ha":1036,"o":"m 839 -229 l 710 -229 l 763 3 l 48 3 l -4 -229 l -134 -229 l -55 115 l 24 115 q 254 495 146 260 q 427 1010 362 729 l 1026 1010 l 819 115 l 919 115 l 839 -229 m 684 115 l 864 898 l 528 898 q 368 447 462 655 q 166 115 273 240 l 684 115 "},"’":{"x_min":176,"x_max":544,"ha":373,"o":"m 544 1055 l 272 676 l 176 676 l 375 1055 l 544 1055 "},"ъ":{"x_min":70,"x_max":804,"ha":890,"o":"m 670 265 q 662 306 670 288 q 635 338 654 325 q 575 359 609 356 q 470 363 540 363 l 353 363 l 291 96 l 417 96 q 524 102 486 96 q 593 125 563 108 q 649 182 629 145 q 670 265 670 218 m 804 283 q 770 155 804 214 q 682 61 736 95 q 578 14 632 28 q 443 0 523 0 l 141 0 l 292 656 l 70 656 l 93 758 l 444 758 l 375 460 l 535 460 q 667 451 621 460 q 753 407 713 442 q 791 353 778 385 q 804 283 804 321 "},"-":{"x_min":104,"x_max":556,"ha":631,"o":"m 527 380 l 104 380 l 132 503 l 556 503 l 527 380 "},"ѕ":{"x_min":12,"x_max":702,"ha":724,"o":"m 275 -18 q 123 3 190 -18 q 12 48 56 24 l 40 185 l 47 185 q 84 156 61 172 q 142 123 106 139 q 215 96 174 107 q 302 85 256 85 q 452 120 398 85 q 507 224 507 155 q 479 279 507 260 q 399 310 451 298 q 335 324 372 316 q 261 342 299 331 q 143 406 181 364 q 106 510 106 449 q 129 609 106 563 q 197 693 152 655 q 307 753 240 730 q 456 776 374 776 q 591 759 524 776 q 702 717 659 742 l 674 587 l 668 587 q 635 610 657 595 q 579 641 613 625 q 511 663 550 654 q 430 673 472 673 q 292 637 345 673 q 240 540 240 601 q 265 483 240 506 q 344 447 291 460 q 413 432 377 439 q 484 417 450 425 q 602 356 562 397 q 642 252 642 314 q 617 150 642 200 q 545 64 592 100 q 429 3 497 25 q 275 -18 360 -18 "},"Q":{"x_min":91,"x_max":1060,"ha":1093,"o":"m 802 249 q 887 422 858 326 q 917 632 917 518 q 847 845 917 771 q 654 920 778 920 q 479 875 557 920 q 345 755 401 831 q 262 581 291 680 q 234 378 234 482 q 303 163 234 238 q 497 88 372 88 q 670 132 592 88 q 802 249 749 176 m 669 13 q 666 -12 667 0 q 665 -32 665 -24 q 699 -129 665 -103 q 797 -155 733 -155 q 865 -147 830 -155 q 923 -131 900 -139 l 942 -131 l 918 -247 q 836 -262 876 -258 q 754 -267 795 -267 q 592 -215 650 -267 q 535 -67 535 -163 q 536 -43 535 -54 q 539 -17 537 -31 q 509 -19 524 -18 q 474 -21 493 -21 q 192 77 294 -21 q 91 357 91 175 q 131 614 91 492 q 249 830 172 737 q 433 976 323 921 q 675 1031 544 1031 q 957 932 854 1031 q 1060 652 1060 834 q 955 259 1060 437 q 669 13 851 80 "},"Ш":{"x_min":48,"x_max":1441.703125,"ha":1431,"o":"m 1209 0 l 48 0 l 280 1010 l 416 1010 l 209 114 l 587 114 l 793 1010 l 929 1010 l 723 114 l 1100 114 l 1306 1010 l 1441 1010 l 1209 0 "},"M":{"x_min":48,"x_max":1182.296875,"ha":1171,"o":"m 948 0 l 813 0 l 1013 858 l 603 278 l 523 278 l 380 884 l 175 0 l 48 0 l 281 1010 l 466 1010 l 603 447 l 995 1010 l 1182 1010 l 948 0 "},"ј":{"x_min":-182,"x_max":509,"ha":478,"o":"m 478 885 l 334 885 l 364 1017 l 509 1017 l 478 885 m 263 -17 q 154 -217 232 -149 q -38 -286 77 -286 q -109 -280 -65 -286 q -182 -266 -153 -275 l -155 -150 l -148 -150 q -102 -167 -129 -158 q -40 -176 -75 -176 q 39 -161 7 -176 q 91 -117 71 -146 q 124 -46 111 -89 q 147 41 137 -4 l 289 656 l 131 656 l 154 758 l 441 758 l 263 -17 "},"C":{"x_min":91,"x_max":1025,"ha":970,"o":"m 501 -18 q 200 81 309 -18 q 91 362 91 180 q 133 623 91 502 q 253 834 175 743 q 445 976 331 924 q 699 1028 559 1028 q 865 1006 787 1028 q 1025 939 942 985 l 994 787 l 984 787 q 939 828 961 809 q 871 870 916 847 q 782 903 833 890 q 668 917 730 917 q 494 877 573 917 q 356 766 415 837 q 267 598 300 697 q 235 387 235 499 q 307 170 235 248 q 517 93 380 93 q 639 107 581 93 q 744 144 697 122 q 824 189 788 165 q 884 232 859 212 l 894 232 l 862 75 q 698 10 790 39 q 501 -18 605 -18 "},"!":{"x_min":117,"x_max":496,"ha":547,"o":"m 496 1010 l 309 278 l 194 278 l 344 1010 l 496 1010 m 255 0 l 117 0 l 150 143 l 289 143 l 255 0 "},"―":{"x_min":106,"x_max":1313,"ha":1389,"o":"m 1287 387 l 106 387 l 131 496 l 1313 496 l 1287 387 "},"Й":{"x_min":48,"x_max":1052.15625,"ha":1042,"o":"m 819 0 l 685 0 l 869 798 l 184 0 l 48 0 l 280 1010 l 415 1010 l 232 223 l 909 1010 l 1052 1010 l 819 0 m 965 1313 q 862 1144 939 1202 q 666 1086 784 1086 q 505 1133 558 1086 q 453 1262 453 1181 q 454 1287 453 1276 q 457 1313 455 1298 l 578 1313 q 575 1288 576 1300 q 574 1266 574 1276 q 600 1190 574 1214 q 680 1166 627 1166 q 784 1200 744 1166 q 840 1313 823 1235 l 965 1313 "},"{":{"x_min":111,"x_max":900,"ha":882,"o":"m 616 -266 l 515 -266 q 352 -217 412 -266 q 293 -76 293 -168 q 300 -9 293 -42 q 314 54 307 23 q 329 121 322 87 q 336 189 336 154 q 292 308 336 266 q 145 351 248 351 l 111 351 l 134 451 l 168 451 q 352 514 282 451 q 447 698 422 577 l 467 794 q 579 986 493 918 q 798 1055 665 1055 l 900 1055 l 881 966 l 803 966 q 657 918 706 966 q 588 780 607 871 l 565 668 q 477 507 542 568 q 312 409 411 445 l 307 392 q 417 312 378 361 q 457 194 457 262 q 435 66 457 153 q 414 -60 414 -19 q 448 -147 414 -118 q 558 -177 482 -177 l 636 -177 l 616 -266 "},"X":{"x_min":-42,"x_max":1053,"ha":952,"o":"m 434 509 l 201 1010 l 347 1010 l 530 606 l 902 1010 l 1053 1010 l 582 506 l 818 0 l 671 0 l 485 408 l 108 0 l -42 0 l 434 509 "},"#":{"x_min":128,"x_max":1069,"ha":1137,"o":"m 1054 632 l 829 632 l 725 377 l 935 377 l 920 285 l 687 285 l 572 0 l 484 0 l 600 285 l 417 285 l 301 0 l 214 0 l 329 285 l 128 285 l 142 377 l 367 377 l 471 632 l 262 632 l 276 724 l 509 724 l 626 1010 l 713 1010 l 596 724 l 779 724 l 896 1010 l 984 1010 l 867 724 l 1069 724 l 1054 632 m 743 633 l 557 633 l 453 375 l 639 375 l 743 633 "},"Б":{"x_min":48,"x_max":955,"ha":952,"o":"m 745 357 q 734 418 745 390 q 700 463 724 445 q 620 494 666 489 q 484 500 575 500 l 299 500 l 210 111 l 406 111 q 547 120 499 111 q 638 155 596 129 q 718 239 692 188 q 745 357 745 290 m 889 379 q 845 205 889 282 q 733 79 802 127 q 597 16 666 33 q 425 0 528 0 l 48 0 l 280 1010 l 955 1010 l 929 896 l 390 896 l 325 611 l 549 611 q 713 598 652 611 q 824 540 773 585 q 872 471 856 512 q 889 379 889 430 "},"г":{"x_min":38,"x_max":735,"ha":654,"o":"m 711 656 l 318 656 l 166 0 l 38 0 l 213 758 l 735 758 l 711 656 "},"Џ":{"x_min":48,"x_max":1054.71875,"ha":1044,"o":"m 372 0 l 48 0 l 280 1010 l 415 1010 l 209 114 l 712 114 l 919 1010 l 1054 1010 l 821 0 l 500 0 l 446 -229 l 318 -229 l 372 0 "},")":{"x_min":-54,"x_max":537,"ha":631,"o":"m 537 600 q 505 349 537 472 q 414 116 473 227 q 274 -94 355 5 q 99 -279 194 -193 l -54 -279 l -54 -272 q 106 -128 23 -213 q 257 65 189 -43 q 373 315 334 190 q 412 576 412 440 q 369 842 412 720 q 254 1048 327 964 l 254 1055 l 397 1055 q 497 841 457 956 q 537 600 537 726 "},"э":{"x_min":-16,"x_max":700,"ha":760,"o":"m 700 487 q 663 282 700 376 q 561 121 626 188 q 411 18 494 53 q 228 -17 328 -17 q 95 -1 161 -17 q -16 33 28 14 l 14 169 l 23 169 q 110 116 46 144 q 255 89 175 89 q 447 157 369 89 q 556 351 526 226 l 169 351 l 191 447 l 570 447 q 571 461 570 453 q 572 477 572 470 q 521 619 572 569 q 377 669 471 669 q 296 659 336 669 q 219 637 255 650 q 156 607 183 622 q 113 581 130 591 l 105 581 l 136 718 q 261 758 196 741 q 392 775 326 775 q 616 701 532 775 q 700 487 700 627 "},"х":{"x_min":-47,"x_max":869,"ha":822,"o":"m 342 382 l 131 758 l 274 758 l 429 468 l 712 758 l 869 758 l 482 376 l 694 0 l 550 0 l 393 289 l 109 0 l -47 0 l 342 382 "},"}":{"x_min":-10,"x_max":779,"ha":882,"o":"m 779 438 l 755 338 l 721 338 q 536 274 605 338 q 442 90 467 210 l 422 -5 q 310 -198 394 -131 q 91 -266 226 -266 l -10 -266 l 9 -177 l 86 -177 q 229 -133 178 -177 q 301 8 280 -90 l 324 120 q 359 212 335 172 q 417 285 383 253 q 492 340 450 317 q 577 379 534 362 l 582 396 q 471 478 509 428 q 433 594 433 528 q 454 720 433 633 q 476 849 476 806 q 439 938 476 910 q 331 966 402 966 l 254 966 l 273 1055 l 374 1055 q 537 1006 477 1055 q 597 865 597 957 q 590 798 597 832 q 575 734 583 764 q 561 669 568 707 q 554 599 554 631 q 597 480 554 522 q 744 438 641 438 l 779 438 "},"‰":{"x_min":128,"x_max":2029,"ha":2109,"o":"m 331 430 q 179 480 231 430 q 128 630 128 531 q 213 918 128 808 q 445 1029 298 1029 q 596 977 544 1029 q 648 828 648 926 q 565 543 648 657 q 331 430 482 430 m 489 620 q 518 720 509 666 q 528 829 528 773 q 504 913 528 885 q 427 942 481 942 q 344 913 378 942 q 287 838 309 885 q 257 742 267 798 q 247 630 247 687 q 269 546 247 575 q 348 517 292 517 q 432 545 397 517 q 489 620 468 573 m 1098 -20 q 946 30 998 -20 q 895 180 895 81 q 980 468 895 358 q 1212 579 1065 579 q 1363 527 1311 579 q 1415 378 1415 476 q 1332 93 1415 207 q 1098 -20 1249 -20 m 1256 170 q 1286 270 1277 216 q 1295 379 1295 323 q 1271 463 1295 435 q 1194 492 1248 492 q 1111 463 1145 492 q 1054 388 1076 435 q 1024 292 1034 348 q 1014 180 1014 237 q 1036 96 1014 125 q 1115 67 1059 67 q 1199 95 1164 67 q 1256 170 1235 123 m 1182 1010 l 475 0 l 362 0 l 1068 1010 l 1182 1010 m 1712 -20 q 1560 30 1612 -20 q 1509 180 1509 81 q 1594 468 1509 358 q 1826 579 1679 579 q 1977 527 1925 579 q 2029 378 2029 476 q 1946 93 2029 207 q 1712 -20 1863 -20 m 1870 170 q 1900 270 1891 216 q 1909 379 1909 323 q 1885 463 1909 435 q 1808 492 1862 492 q 1725 463 1759 492 q 1668 388 1690 435 q 1638 292 1648 348 q 1628 180 1628 237 q 1650 96 1628 125 q 1729 67 1673 67 q 1813 95 1778 67 q 1870 170 1849 123 "},"ш":{"x_min":38,"x_max":1180.53125,"ha":1217,"o":"m 1004 0 l 38 0 l 213 758 l 342 758 l 190 102 l 479 102 l 632 758 l 760 758 l 608 102 l 898 102 l 1051 758 l 1180 758 l 1004 0 "},"Я":{"x_min":-58,"x_max":991.390625,"ha":981,"o":"m 758 0 l 623 0 l 716 405 l 509 405 l 114 0 l -58 0 l 366 426 q 245 520 283 464 q 207 650 207 577 q 254 827 207 751 q 377 948 301 904 q 498 996 431 982 q 645 1010 565 1010 l 991 1010 l 758 0 m 740 511 l 830 899 l 617 899 q 523 891 558 899 q 452 863 488 884 q 375 774 400 832 q 351 656 351 716 q 395 547 351 584 q 541 511 439 511 l 740 511 "},"Ч":{"x_min":153,"x_max":999.734375,"ha":989,"o":"m 766 0 l 631 0 l 729 429 q 577 386 646 403 q 419 370 507 370 q 223 427 294 370 q 153 588 153 485 q 155 631 153 610 q 163 678 158 653 l 240 1010 l 376 1010 l 312 733 q 301 675 306 707 q 297 622 297 643 q 341 518 297 548 q 470 489 385 489 q 623 504 546 489 q 755 539 699 520 l 863 1010 l 999 1010 l 766 0 "},"a":{"x_min":26,"x_max":755,"ha":834,"o":"m 591 400 q 406 384 487 395 q 272 349 325 372 q 189 288 217 327 q 161 193 161 250 q 194 118 161 144 q 296 93 227 93 q 422 120 358 93 q 541 187 486 148 l 591 400 m 517 81 q 467 50 499 70 q 403 15 436 30 q 326 -10 369 0 q 228 -21 283 -21 q 82 31 138 -21 q 26 168 26 84 q 65 321 26 259 q 183 422 105 383 q 367 478 259 461 q 614 500 475 495 q 621 532 618 519 q 623 561 623 546 q 610 614 623 594 q 574 647 598 634 q 519 663 550 659 q 449 668 487 668 q 317 649 391 668 q 197 613 243 631 l 191 613 l 216 740 q 329 763 254 750 q 472 776 404 776 q 684 731 613 776 q 755 592 755 687 q 751 553 755 573 q 744 514 748 532 l 626 0 l 499 0 l 517 81 "},"—":{"x_min":106,"x_max":1313,"ha":1389,"o":"m 1287 387 l 106 387 l 131 496 l 1313 496 l 1287 387 "},"=":{"x_min":195,"x_max":999,"ha":1137,"o":"m 999 530 l 195 530 l 195 639 l 999 639 l 999 530 m 999 245 l 195 245 l 195 354 l 999 354 l 999 245 "},"N":{"x_min":48,"x_max":1053.203125,"ha":1039,"o":"m 819 0 l 658 0 l 384 903 l 175 0 l 48 0 l 281 1010 l 484 1010 l 735 185 l 925 1010 l 1053 1010 l 819 0 "},"Ћ":{"x_min":118,"x_max":1041,"ha":1136,"o":"m 338 0 l 203 0 l 410 896 l 118 896 l 144 1010 l 911 1010 l 884 896 l 546 896 l 471 573 q 625 611 541 594 q 778 629 708 629 q 971 576 901 629 q 1041 419 1041 523 q 1037 375 1041 403 q 1029 329 1034 347 l 952 0 l 817 0 l 878 262 q 891 327 885 297 q 897 386 897 358 q 856 483 897 454 q 727 512 814 512 q 582 498 649 512 q 445 463 515 484 l 338 0 "},"⁄":{"x_min":-136,"x_max":684,"ha":502,"o":"m 684 1010 l -22 0 l -136 0 l 570 1010 l 684 1010 "},"д":{"x_min":-126.140625,"x_max":810,"ha":863,"o":"m 687 -182 l 567 -182 l 610 2 l 37 2 l -5 -182 l -126 -182 l -60 104 l 24 104 q 207 399 124 224 q 333 758 289 574 l 810 758 l 658 104 l 754 104 l 687 -182 m 531 104 l 659 656 l 430 656 q 309 343 383 487 q 154 104 236 198 l 531 104 "},"2":{"x_min":23,"x_max":823,"ha":883,"o":"m 706 0 l 23 0 l 54 141 q 217 260 150 211 q 378 384 284 309 q 611 607 543 517 q 680 783 680 698 q 632 884 680 850 q 511 918 585 918 q 373 895 451 918 q 221 830 296 872 l 215 830 l 242 967 q 379 1011 295 992 q 539 1031 462 1031 q 749 971 675 1031 q 823 811 823 912 q 760 604 823 701 q 542 377 698 507 q 351 228 449 300 q 189 111 253 156 l 732 111 l 706 0 "},"М":{"x_min":48,"x_max":1182.296875,"ha":1171,"o":"m 948 0 l 813 0 l 1013 858 l 603 278 l 523 278 l 380 884 l 175 0 l 48 0 l 281 1010 l 466 1010 l 603 447 l 995 1010 l 1182 1010 l 948 0 "},"Z":{"x_min":1,"x_max":1002,"ha":952,"o":"m 790 0 l 1 0 l 28 123 l 811 896 l 219 896 l 245 1010 l 1002 1010 l 974 894 l 184 114 l 817 114 l 790 0 "},"ь":{"x_min":37,"x_max":707,"ha":793,"o":"m 573 265 q 565 306 573 288 q 538 338 557 325 q 478 359 512 356 q 372 363 443 363 l 249 363 l 187 96 l 320 96 q 427 102 389 96 q 496 125 466 108 q 552 182 532 145 q 573 265 573 218 m 707 283 q 673 155 707 214 q 585 61 639 95 q 481 14 535 28 q 346 0 426 0 l 37 0 l 212 758 l 340 758 l 271 460 l 438 460 q 570 451 524 460 q 656 407 615 442 q 694 353 681 385 q 707 283 707 321 "},"u":{"x_min":83,"x_max":841.5625,"ha":879,"o":"m 841 758 l 666 0 l 539 0 l 558 84 q 423 6 485 34 q 290 -21 360 -21 q 137 28 192 -21 q 83 171 83 77 q 86 216 83 194 q 94 266 89 238 l 207 758 l 335 758 l 235 326 q 224 266 229 300 q 218 212 218 232 q 248 125 218 154 q 348 96 277 96 q 463 125 399 96 q 583 192 528 154 l 714 758 l 841 758 "},"k":{"x_min":43,"x_max":870,"ha":815,"o":"m 734 0 l 579 0 l 336 333 l 228 245 l 172 0 l 43 0 l 286 1055 l 415 1055 l 258 378 l 702 758 l 870 758 l 437 399 l 734 0 "},"З":{"x_min":-13,"x_max":848,"ha":855,"o":"m 779 354 q 733 194 779 265 q 617 72 687 123 q 471 3 553 25 q 299 -18 390 -18 q 114 1 196 -18 q -13 41 32 21 l 19 184 l 29 184 q 163 119 86 146 q 325 93 240 93 q 434 109 374 93 q 534 153 495 126 q 610 236 583 188 q 637 348 637 285 q 580 455 637 420 q 408 491 524 491 l 264 491 l 289 602 l 415 602 q 622 653 541 602 q 704 794 704 705 q 654 883 704 851 q 507 916 605 916 q 349 892 435 916 q 185 827 263 868 l 177 827 l 210 969 q 355 1010 265 992 q 526 1028 444 1028 q 762 976 677 1028 q 848 824 848 924 q 774 652 848 725 q 601 558 701 579 l 599 547 q 661 529 628 542 q 719 494 693 516 q 762 437 745 471 q 779 354 779 402 "},"Ў":{"x_min":14,"x_max":998,"ha":855,"o":"m 998 1010 l 420 159 q 344 72 383 104 q 264 21 304 39 q 192 0 226 5 q 127 -5 159 -5 q 62 -2 100 -5 q 14 1 24 0 l 41 123 l 51 123 q 84 118 61 121 q 138 116 107 116 q 174 117 151 116 q 218 126 197 118 q 265 152 240 134 q 314 207 290 170 l 355 268 l 148 1010 l 290 1010 l 452 412 l 852 1010 l 998 1010 m 870 1313 q 767 1144 844 1202 q 571 1086 689 1086 q 410 1133 463 1086 q 358 1262 358 1181 q 359 1287 358 1276 q 362 1313 360 1298 l 483 1313 q 480 1288 481 1300 q 479 1266 479 1276 q 505 1190 479 1214 q 585 1166 532 1166 q 689 1200 649 1166 q 745 1313 728 1235 l 870 1313 "},"€":{"x_min":0,"x_max":938,"ha":883,"o":"m 938 952 l 907 801 l 897 801 q 773 889 835 862 q 632 917 711 917 q 489 877 565 917 q 356 766 414 837 q 319 713 336 742 q 287 653 301 684 l 558 653 l 528 573 l 258 573 q 244 507 250 542 q 236 443 238 472 l 479 443 l 449 363 l 235 363 q 305 164 241 235 q 474 93 370 93 q 645 127 560 93 q 797 218 729 161 l 807 218 l 775 62 q 624 4 703 26 q 461 -18 545 -18 q 199 81 308 -18 q 91 363 91 180 l 0 363 l 29 443 l 94 443 q 103 509 97 475 q 117 573 109 542 l 27 573 l 57 653 l 143 653 q 191 747 162 700 q 253 834 219 795 q 443 976 331 924 q 657 1028 555 1028 q 791 1013 727 1028 q 938 952 856 998 "},"в":{"x_min":38,"x_max":758,"ha":826,"o":"m 727 261 q 691 143 727 196 q 603 57 655 90 q 497 11 551 23 q 363 0 443 0 l 38 0 l 213 758 l 496 758 q 624 751 584 758 q 698 724 663 745 q 743 677 729 705 q 758 614 758 649 q 717 493 758 546 q 605 412 676 441 l 605 407 q 692 357 657 393 q 727 261 727 321 m 622 589 q 614 620 622 606 q 592 644 607 634 q 534 660 567 658 q 444 662 501 662 l 318 662 l 268 445 l 427 445 q 504 448 482 445 q 557 468 527 451 q 606 520 590 489 q 622 589 622 551 m 593 257 q 582 302 593 282 q 544 337 572 323 q 490 349 522 348 q 409 351 458 351 l 246 351 l 187 96 l 316 96 q 433 101 388 96 q 510 123 479 106 q 573 178 553 145 q 593 257 593 211 "},"С":{"x_min":91,"x_max":1025,"ha":970,"o":"m 501 -18 q 200 81 309 -18 q 91 362 91 180 q 133 623 91 502 q 253 834 175 743 q 445 976 331 924 q 699 1028 559 1028 q 865 1006 787 1028 q 1025 939 942 985 l 994 787 l 984 787 q 939 828 961 809 q 871 870 916 847 q 782 903 833 890 q 668 917 730 917 q 494 877 573 917 q 356 766 415 837 q 267 598 300 697 q 235 387 235 499 q 307 170 235 248 q 517 93 380 93 q 639 107 581 93 q 744 144 697 122 q 824 189 788 165 q 884 232 859 212 l 894 232 l 862 75 q 698 10 790 39 q 501 -18 605 -18 "},"Ω":{"x_min":-7,"x_max":1086,"ha":1137,"o":"m 985 0 l 575 0 l 634 259 q 747 323 689 285 q 847 408 806 360 q 917 524 891 460 q 944 680 944 588 q 871 855 944 791 q 673 920 798 920 q 506 886 579 920 q 385 798 433 853 q 311 672 336 743 q 286 525 286 601 q 299 429 286 470 q 338 358 313 389 q 399 302 363 327 q 462 259 434 276 l 402 0 l -7 0 l 18 114 l 315 114 l 339 206 q 194 343 244 262 q 144 525 144 424 q 183 717 144 627 q 294 878 222 807 q 466 988 363 946 q 688 1031 568 1031 q 979 938 872 1031 q 1086 694 1086 846 q 1058 532 1086 609 q 982 392 1031 455 q 874 283 936 332 q 737 202 811 234 l 715 114 l 1011 114 l 985 0 "},"њ":{"x_min":38,"x_max":1184,"ha":1270,"o":"m 1050 265 q 1042 306 1050 288 q 1015 338 1034 325 q 955 359 989 356 q 850 363 920 363 l 733 363 l 671 96 l 797 96 q 904 102 866 96 q 973 125 943 108 q 1029 182 1009 145 q 1050 265 1050 218 m 1184 283 q 1150 155 1184 214 q 1062 61 1116 95 q 958 14 1012 28 q 823 0 903 0 l 521 0 l 604 363 l 250 363 l 166 0 l 38 0 l 213 758 l 342 758 l 273 460 l 627 460 l 696 758 l 824 758 l 755 460 l 915 460 q 1047 451 1001 460 q 1133 407 1092 442 q 1171 353 1158 385 q 1184 283 1184 321 "},"s":{"x_min":12,"x_max":702,"ha":724,"o":"m 275 -18 q 123 3 190 -18 q 12 48 56 24 l 40 185 l 47 185 q 84 156 61 172 q 142 123 106 139 q 215 96 174 107 q 302 85 256 85 q 452 120 398 85 q 507 224 507 155 q 479 279 507 260 q 399 310 451 298 q 335 324 372 316 q 261 342 299 331 q 143 406 181 364 q 106 510 106 449 q 129 609 106 563 q 197 693 152 655 q 307 753 240 730 q 456 776 374 776 q 591 759 524 776 q 702 717 659 742 l 674 587 l 668 587 q 635 610 657 595 q 579 641 613 625 q 511 663 550 654 q 430 673 472 673 q 292 637 345 673 q 240 540 240 601 q 265 483 240 506 q 344 447 291 460 q 413 432 377 439 q 484 417 450 425 q 602 356 562 397 q 642 252 642 314 q 617 150 642 200 q 545 64 592 100 q 429 3 497 25 q 275 -18 360 -18 "},"B":{"x_min":48,"x_max":908,"ha":952,"o":"m 733 81 q 595 18 667 37 q 418 0 523 0 l 48 0 l 280 1010 l 570 1010 q 734 1002 681 1010 q 833 967 788 995 q 889 909 870 944 q 908 830 908 873 q 858 675 908 742 q 721 571 809 608 l 721 566 q 845 497 802 548 q 889 368 889 447 q 845 205 889 282 q 733 81 802 128 m 762 792 q 752 839 762 820 q 725 869 743 857 q 654 893 696 888 q 543 899 611 899 l 390 899 l 321 600 l 497 600 q 599 608 556 600 q 675 635 642 616 q 739 704 717 659 q 762 792 762 749 m 747 360 q 734 421 747 398 q 688 465 721 444 q 618 487 660 482 q 501 493 576 493 l 297 493 l 209 111 l 393 111 q 540 120 483 111 q 638 155 596 130 q 719 242 691 187 q 747 360 747 297 "},"…":{"x_min":33,"x_max":963,"ha":1137,"o":"m 927 0 l 789 0 l 824 151 l 963 151 l 927 0 m 549 0 l 411 0 l 446 151 l 585 151 l 549 0 m 171 0 l 33 0 l 68 151 l 207 151 l 171 0 "},"В":{"x_min":48,"x_max":908,"ha":952,"o":"m 733 81 q 595 18 667 37 q 418 0 523 0 l 48 0 l 280 1010 l 570 1010 q 734 1002 681 1010 q 833 967 788 995 q 889 909 870 944 q 908 830 908 873 q 858 675 908 742 q 721 571 809 608 l 721 566 q 845 497 802 548 q 889 368 889 447 q 845 205 889 282 q 733 81 802 128 m 762 792 q 752 839 762 820 q 725 869 743 857 q 654 893 696 888 q 543 899 611 899 l 390 899 l 321 600 l 497 600 q 599 608 556 600 q 675 635 642 616 q 739 704 717 659 q 762 792 762 749 m 747 360 q 734 421 747 398 q 688 465 721 444 q 618 487 660 482 q 501 493 576 493 l 297 493 l 209 111 l 393 111 q 540 120 483 111 q 638 155 596 130 q 719 242 691 187 q 747 360 747 297 "},"І":{"x_min":4.375,"x_max":638.09375,"ha":585,"o":"m 404 0 l 4 0 l 26 98 l 159 98 l 347 912 l 215 912 l 237 1010 l 638 1010 l 615 912 l 483 912 l 294 98 l 427 98 l 404 0 "},"?":{"x_min":183,"x_max":773,"ha":758,"o":"m 658 573 q 542 489 607 527 q 406 418 478 452 l 373 271 l 252 271 l 299 478 q 419 537 350 501 q 526 605 487 573 q 605 695 580 650 q 631 798 631 740 q 587 888 631 857 q 471 920 543 920 q 335 899 406 920 q 212 850 264 879 l 206 850 l 236 982 q 362 1015 286 1000 q 503 1031 438 1031 q 702 974 631 1031 q 773 823 773 917 q 742 683 773 745 q 658 573 711 621 m 321 0 l 183 0 l 216 143 l 355 143 l 321 0 "},"H":{"x_min":48,"x_max":1054.046875,"ha":1044,"o":"m 1054 1010 l 821 0 l 687 0 l 801 496 l 296 496 l 182 0 l 48 0 l 280 1010 l 415 1010 l 322 610 l 827 610 l 919 1010 l 1054 1010 "},"c":{"x_min":59,"x_max":748,"ha":724,"o":"m 366 -17 q 239 0 294 -17 q 142 53 183 16 q 80 142 102 88 q 59 267 59 195 q 92 465 59 373 q 186 627 125 558 q 332 735 245 695 q 519 775 419 775 q 644 756 585 775 q 748 713 703 738 l 720 576 l 712 576 q 678 604 699 588 q 630 634 658 620 q 568 659 602 649 q 491 669 535 669 q 277 557 360 669 q 194 287 194 446 q 243 140 194 191 q 383 89 292 89 q 468 101 426 89 q 541 127 511 113 q 603 160 574 143 q 644 187 631 178 l 652 187 l 624 48 q 500 2 565 21 q 366 -17 434 -17 "},"−":{"x_min":178,"x_max":1016,"ha":1137,"o":"m 1016 387 l 178 387 l 178 496 l 1016 496 l 1016 387 "},"≠":{"x_min":195,"x_max":999,"ha":1137,"o":"m 999 245 l 587 245 l 516 18 l 413 18 l 483 245 l 195 245 l 195 351 l 516 351 l 573 533 l 195 533 l 195 639 l 606 639 l 677 866 l 781 866 l 710 639 l 999 639 l 999 533 l 677 533 l 620 351 l 999 351 l 999 245 "},"‼":{"x_min":117,"x_max":817,"ha":867,"o":"m 496 1010 l 309 278 l 194 278 l 344 1010 l 496 1010 m 255 0 l 117 0 l 150 143 l 289 143 l 255 0 m 817 1010 l 630 278 l 515 278 l 665 1010 l 817 1010 m 576 0 l 438 0 l 471 143 l 610 143 l 576 0 "},"•":{"x_min":153,"x_max":660,"ha":758,"o":"m 660 449 q 585 270 660 344 q 406 196 510 196 q 227 270 301 196 q 153 449 153 344 q 227 627 153 553 q 406 702 301 702 q 585 627 510 702 q 660 449 660 553 "},"н":{"x_min":38,"x_max":848,"ha":885,"o":"m 672 0 l 544 0 l 623 344 l 246 344 l 166 0 l 38 0 l 213 758 l 342 758 l 269 446 l 647 446 l 719 758 l 848 758 l 672 0 "},"(":{"x_min":96,"x_max":687,"ha":631,"o":"m 380 -279 l 235 -279 q 135 -64 174 -180 q 96 175 96 50 q 127 424 96 304 q 218 659 158 543 q 356 867 276 769 q 533 1055 436 966 l 687 1055 l 687 1048 q 526 903 609 991 q 375 710 442 816 q 264 473 307 602 q 221 199 221 343 q 263 -68 221 52 q 380 -272 306 -189 l 380 -279 "},"U":{"x_min":105,"x_max":1041.578125,"ha":1017,"o":"m 902 405 q 835 212 875 292 q 727 78 794 132 q 591 3 664 27 q 420 -21 518 -21 q 183 50 261 -21 q 105 249 105 122 q 110 329 105 292 q 125 405 116 365 l 264 1010 l 400 1010 l 259 399 q 246 327 251 367 q 241 265 241 287 q 292 135 241 180 q 444 90 343 90 q 572 112 517 90 q 667 179 627 134 q 726 272 704 221 q 765 395 748 323 l 906 1010 l 1041 1010 l 902 405 "},"F":{"x_min":48,"x_max":926,"ha":798,"o":"m 900 896 l 391 896 l 323 602 l 761 602 l 734 488 l 296 488 l 183 0 l 48 0 l 281 1010 l 926 1010 l 900 896 "},"м":{"x_min":38,"x_max":930.5,"ha":967,"o":"m 755 0 l 628 0 l 763 586 l 494 209 l 400 209 l 299 611 l 158 0 l 38 0 l 213 758 l 368 758 l 475 332 l 771 758 l 930 758 l 755 0 "},"з":{"x_min":-26,"x_max":680,"ha":728,"o":"m 513 48 q 394 -1 458 14 q 258 -18 329 -18 q 108 -3 180 -18 q -26 43 37 11 l 5 179 l 14 179 q 128 111 56 135 q 273 88 201 88 q 361 98 317 88 q 432 127 405 109 q 481 178 465 149 q 497 244 497 207 q 483 294 497 275 q 446 325 469 314 q 390 338 421 335 q 324 342 360 342 l 201 342 l 225 446 l 311 446 q 390 450 340 446 q 469 465 441 454 q 529 510 511 481 q 548 579 548 540 q 534 623 548 606 q 496 651 520 640 q 448 665 474 661 q 397 670 422 670 q 255 651 325 670 q 128 597 185 633 l 120 597 l 151 734 q 277 763 201 750 q 411 776 353 776 q 506 767 459 776 q 592 740 553 759 q 655 687 630 721 q 680 605 680 654 q 629 476 680 532 q 505 398 579 420 l 505 393 q 593 345 558 382 q 629 252 629 308 q 596 132 629 184 q 513 48 564 81 "},":":{"x_min":147,"x_max":485,"ha":631,"o":"m 440 565 l 277 565 l 321 758 l 485 758 l 440 565 m 310 0 l 147 0 l 191 193 l 355 193 l 310 0 "},"Ґ":{"x_min":48,"x_max":999,"ha":787,"o":"m 908 896 l 391 896 l 183 0 l 48 0 l 281 1010 l 809 1010 l 873 1288 l 999 1288 l 908 896 "},"і":{"x_min":39,"x_max":410,"ha":381,"o":"m 410 1017 l 379 885 l 235 885 l 265 1017 l 410 1017 m 341 758 l 166 0 l 39 0 l 214 758 l 341 758 "},"*":{"x_min":200,"x_max":851,"ha":883,"o":"m 851 602 l 810 531 l 562 678 l 567 431 l 484 431 l 488 678 l 241 531 l 200 601 l 460 743 l 200 884 l 241 955 l 488 808 l 484 1055 l 567 1055 l 562 809 l 810 954 l 851 883 l 590 744 l 851 602 "},"†":{"x_min":202,"x_max":850,"ha":883,"o":"m 831 702 l 558 705 l 419 92 l 330 92 l 475 705 l 202 702 l 220 787 l 492 783 l 552 1055 l 641 1055 l 574 783 l 850 787 l 831 702 "},"Ќ":{"x_min":51,"x_max":1035,"ha":962,"o":"m 872 0 l 710 0 l 394 461 l 293 461 l 186 0 l 51 0 l 283 1010 l 419 1010 l 315 557 q 380 564 346 557 q 443 585 415 570 q 508 630 476 602 q 570 702 539 659 q 603 750 585 723 q 638 806 620 777 q 785 966 715 923 q 974 1010 854 1010 l 1035 1010 l 1007 893 l 946 893 q 875 881 906 893 q 819 844 845 869 q 773 786 794 821 q 732 722 751 752 q 625 587 672 628 q 514 517 577 545 l 872 0 m 910 1390 l 668 1136 l 563 1136 l 735 1390 l 910 1390 "},"∕":{"x_min":-136,"x_max":684,"ha":502,"o":"m 684 1010 l -22 0 l -136 0 l 570 1010 l 684 1010 "},"₫":{"x_min":42,"x_max":996,"ha":865,"o":"m 851 863 l 652 0 l 525 0 l 543 79 q 404 0 457 20 q 290 -21 352 -21 q 120 46 183 -21 q 58 244 58 114 q 91 450 58 353 q 184 621 125 548 q 320 736 241 694 q 486 779 398 779 q 598 766 547 779 q 692 727 648 753 l 724 863 l 478 863 l 498 951 l 744 951 l 768 1055 l 895 1055 l 871 951 l 996 951 l 975 863 l 851 863 m 668 621 q 579 656 623 645 q 486 668 535 668 q 360 634 416 668 q 266 541 305 600 q 211 412 230 487 q 192 266 192 336 q 227 139 192 183 q 342 96 263 96 q 458 124 399 96 q 568 186 518 153 l 668 621 m 42 -219 l 62 -131 l 625 -131 l 604 -219 l 42 -219 "},"V":{"x_min":151,"x_max":1065,"ha":948,"o":"m 1065 1010 l 464 0 l 285 0 l 151 1010 l 290 1010 l 400 120 l 923 1010 l 1065 1010 "},"У":{"x_min":14,"x_max":998,"ha":855,"o":"m 998 1010 l 420 159 q 344 72 383 104 q 264 21 304 39 q 192 0 226 5 q 127 -5 159 -5 q 62 -2 100 -5 q 14 1 24 0 l 41 123 l 51 123 q 84 118 61 121 q 138 116 107 116 q 174 117 151 116 q 218 126 197 118 q 265 152 240 134 q 314 207 290 170 l 355 268 l 148 1010 l 290 1010 l 452 412 l 852 1010 l 998 1010 "},"0":{"x_min":90,"x_max":852,"ha":883,"o":"m 852 734 q 802 418 852 600 q 678 138 752 236 q 538 17 615 56 q 362 -21 462 -21 q 157 52 224 -21 q 90 275 90 125 q 137 581 90 397 q 263 871 184 766 q 403 991 324 952 q 580 1031 481 1031 q 784 957 717 1031 q 852 734 852 883 m 715 736 q 680 875 715 827 q 558 924 646 924 q 443 895 493 924 q 351 794 393 866 q 265 546 304 711 q 227 273 227 380 q 261 134 227 182 q 383 86 295 86 q 498 115 445 86 q 590 215 551 145 q 676 465 637 299 q 715 736 715 630 "},"”":{"x_min":170,"x_max":809,"ha":638,"o":"m 809 1055 l 537 676 l 444 676 l 643 1055 l 809 1055 m 535 1055 l 263 676 l 170 676 l 369 1055 l 535 1055 "},"@":{"x_min":131,"x_max":1305,"ha":1389,"o":"m 1125 106 l 812 106 l 813 184 q 709 122 759 144 q 602 101 659 101 q 458 159 511 101 q 405 327 405 217 q 436 508 405 428 q 520 647 468 589 q 635 734 568 702 q 765 766 702 766 q 857 754 814 766 q 937 721 901 742 l 945 754 l 1053 754 l 920 181 l 1094 181 q 1181 369 1151 257 q 1211 566 1211 481 q 1106 845 1211 747 q 814 944 1002 944 q 587 894 694 944 q 399 760 480 844 q 274 564 321 677 q 227 331 227 451 q 336 40 227 149 q 636 -68 445 -68 q 762 -59 694 -68 q 882 -36 830 -50 l 864 -127 q 746 -147 798 -141 q 620 -153 694 -153 q 264 -25 398 -153 q 131 313 131 101 q 187 591 131 460 q 338 819 243 722 q 560 973 431 916 q 826 1031 689 1031 q 1178 911 1051 1031 q 1305 580 1305 791 q 1257 326 1305 448 q 1125 106 1210 203 m 833 276 l 916 635 q 843 663 879 654 q 765 672 806 672 q 592 581 663 672 q 522 345 522 490 q 552 238 522 276 q 649 201 582 201 q 743 224 696 201 q 833 276 790 247 "},"℅":{"x_min":131,"x_max":1415,"ha":1495,"o":"m 1098 -20 q 946 30 998 -20 q 895 180 895 81 q 980 468 895 358 q 1212 579 1065 579 q 1363 527 1311 579 q 1415 378 1415 476 q 1332 93 1415 207 q 1098 -20 1249 -20 m 1256 170 q 1286 270 1277 216 q 1295 379 1295 323 q 1271 463 1295 435 q 1194 492 1248 492 q 1111 463 1145 492 q 1054 388 1076 435 q 1024 292 1034 348 q 1014 180 1014 237 q 1036 96 1014 125 q 1115 67 1059 67 q 1199 95 1164 67 q 1256 170 1235 123 m 1182 1010 l 475 0 l 362 0 l 1068 1010 l 1182 1010 m 540 475 q 458 444 507 459 q 358 430 409 430 q 192 484 254 430 q 131 649 131 538 q 158 805 131 734 q 234 925 186 875 q 344 1002 280 975 q 476 1029 409 1029 q 561 1017 521 1029 q 641 984 601 1006 l 618 869 l 609 869 q 535 923 569 908 q 463 939 501 939 q 384 920 422 939 q 314 865 345 902 q 267 779 285 831 q 250 665 250 726 q 287 555 250 590 q 383 520 324 520 q 467 538 427 520 q 554 593 507 557 l 564 593 l 540 475 "},"i":{"x_min":39,"x_max":410,"ha":381,"o":"m 410 1017 l 379 885 l 235 885 l 265 1017 l 410 1017 m 341 758 l 166 0 l 39 0 l 214 758 l 341 758 "},"ќ":{"x_min":43,"x_max":848,"ha":822,"o":"m 734 0 l 579 0 l 325 350 l 253 350 l 172 0 l 43 0 l 218 758 l 347 758 l 271 429 q 368 448 324 429 q 456 527 412 468 q 484 567 469 545 q 510 607 498 589 q 614 715 555 673 q 789 758 673 758 l 848 758 l 823 652 l 770 652 q 681 625 717 652 q 607 544 644 599 q 524 446 566 481 q 441 394 482 411 l 734 0 m 796 1137 l 554 883 l 449 883 l 621 1137 l 796 1137 "},"≤":{"x_min":201,"x_max":984,"ha":1137,"o":"m 984 206 l 201 533 l 201 617 l 984 945 l 984 820 l 382 575 l 984 330 l 984 206 m 984 0 l 201 0 l 201 109 l 984 109 l 984 0 "},"ё":{"x_min":60,"x_max":782,"ha":827,"o":"m 650 462 q 655 495 654 481 q 657 525 657 508 q 617 638 657 597 q 490 679 577 679 q 318 619 393 679 q 217 462 244 559 l 650 462 m 396 -18 q 149 56 238 -18 q 60 272 60 130 q 191 629 60 480 q 516 779 322 779 q 713 714 645 779 q 782 534 782 650 q 776 470 782 514 q 757 368 770 426 l 199 368 q 193 329 195 348 q 192 293 192 310 q 250 142 192 197 q 416 88 308 88 q 569 117 490 88 q 702 183 648 146 l 710 183 l 682 45 q 621 23 648 33 q 552 2 594 13 q 477 -12 510 -7 q 396 -18 444 -18 m 718 884 l 582 884 l 612 1016 l 749 1016 l 718 884 m 437 884 l 301 884 l 331 1016 l 468 1016 l 437 884 "},"№":{"x_min":48,"x_max":1610,"ha":1628,"o":"m 778 0 l 615 0 l 381 903 l 173 0 l 48 0 l 280 1010 l 485 1010 l 696 185 l 886 1010 l 1011 1010 l 778 0 m 1610 828 q 1587 666 1610 740 q 1523 540 1564 591 q 1422 458 1479 486 q 1289 430 1365 430 q 1135 479 1188 430 q 1083 630 1083 529 q 1103 788 1083 718 q 1166 915 1124 858 q 1267 998 1206 967 q 1404 1029 1329 1029 q 1557 978 1504 1029 q 1610 828 1610 927 m 1447 616 q 1479 713 1468 658 q 1491 824 1491 769 q 1466 913 1491 882 q 1386 944 1441 944 q 1302 916 1336 944 q 1245 843 1269 889 q 1212 744 1223 801 q 1202 632 1202 686 q 1226 545 1202 576 q 1307 515 1250 515 q 1390 544 1354 515 q 1447 616 1426 573 m 1408 246 l 1384 144 l 1059 144 l 1082 246 l 1408 246 "},"]":{"x_min":-32,"x_max":626,"ha":631,"o":"m 320 -266 l -32 -266 l -11 -174 l 222 -174 l 487 963 l 253 963 l 273 1055 l 626 1055 l 320 -266 "},"А":{"x_min":-58,"x_max":855,"ha":948,"o":"m 855 0 l 719 0 l 686 283 l 248 283 l 83 0 l -58 0 l 543 1010 l 721 1010 l 855 0 m 671 394 l 608 893 l 313 394 l 671 394 "},"m":{"x_min":38,"x_max":1270,"ha":1352,"o":"m 1270 590 q 1266 542 1270 567 q 1257 491 1263 517 l 1143 0 l 1016 0 l 1115 431 q 1128 497 1123 467 q 1134 554 1134 528 q 1108 634 1134 606 q 1010 662 1082 662 q 897 632 956 662 q 778 562 837 602 q 774 523 777 545 q 767 484 771 501 l 655 0 l 527 0 l 627 431 q 641 500 636 473 q 647 554 647 527 q 612 639 647 616 q 521 662 578 662 q 430 641 480 662 q 296 565 379 620 l 165 0 l 38 0 l 213 758 l 340 758 l 321 674 q 453 751 392 723 q 581 779 514 779 q 706 746 658 779 q 769 656 754 713 q 930 750 859 721 q 1070 779 1001 779 q 1219 729 1169 779 q 1270 590 1270 679 "},"′":{"x_min":151,"x_max":548,"ha":502,"o":"m 548 1010 l 248 590 l 151 590 l 379 1010 l 548 1010 "},"Ы":{"x_min":48,"x_max":1289.15625,"ha":1278,"o":"m 738 357 q 727 418 738 390 q 693 463 717 445 q 613 494 659 489 q 477 500 568 500 l 299 500 l 210 111 l 399 111 q 540 120 492 111 q 631 155 589 129 q 711 239 685 188 q 738 357 738 290 m 882 379 q 838 205 882 282 q 726 79 795 127 q 590 16 659 33 q 418 0 521 0 l 48 0 l 280 1010 l 417 1010 l 325 611 l 542 611 q 706 598 645 611 q 817 540 766 585 q 865 471 849 512 q 882 379 882 430 m 1055 0 l 920 0 l 1153 1010 l 1289 1010 l 1055 0 "},"Е":{"x_min":48,"x_max":946,"ha":878,"o":"m 946 1010 l 919 896 l 388 896 l 322 610 l 854 610 l 827 496 l 296 496 l 208 114 l 740 114 l 713 0 l 48 0 l 280 1010 l 946 1010 "},"8":{"x_min":62,"x_max":857,"ha":883,"o":"m 680 86 q 550 6 624 36 q 377 -23 476 -23 q 147 47 232 -23 q 62 227 62 117 q 123 411 62 329 q 303 541 185 493 l 303 545 q 211 627 242 581 q 181 731 181 673 q 293 943 181 853 q 568 1033 406 1033 q 779 971 701 1033 q 857 816 857 910 q 801 657 857 735 q 639 535 745 579 l 639 531 q 753 446 714 496 q 793 320 793 396 q 763 197 793 261 q 680 86 733 133 m 720 799 q 673 898 720 858 q 547 938 626 938 q 386 886 452 938 q 321 758 321 835 q 343 687 321 719 q 408 632 365 655 q 473 601 433 619 q 561 568 513 584 q 683 674 646 618 q 720 799 720 730 m 589 148 q 634 220 619 180 q 650 303 650 261 q 625 383 650 349 q 542 446 601 417 q 477 474 512 461 q 382 510 441 487 q 250 398 296 468 q 204 251 204 329 q 255 124 204 175 q 391 73 306 73 q 510 94 460 73 q 589 148 560 115 "},"Э":{"x_min":1,"x_max":944,"ha":974,"o":"m 944 648 q 900 378 944 502 q 778 167 857 254 q 583 29 696 78 q 324 -19 471 -19 q 144 -1 229 -19 q 1 42 59 15 l 34 189 l 45 189 q 172 118 89 145 q 349 92 255 92 q 513 120 438 92 q 647 203 588 149 q 740 327 702 256 q 793 484 777 399 l 234 484 l 259 596 l 807 596 q 807 611 807 604 q 808 631 808 619 q 786 755 808 702 q 725 845 765 809 q 628 899 685 881 q 505 917 572 917 q 324 891 410 917 q 167 820 238 865 l 156 820 l 189 965 q 342 1009 252 990 q 524 1028 432 1028 q 703 1002 625 1028 q 832 930 780 976 q 915 812 887 881 q 944 648 944 743 "},"R":{"x_min":48,"x_max":892,"ha":966,"o":"m 741 759 q 730 819 741 794 q 696 861 719 844 q 634 890 671 882 q 542 899 596 899 l 390 899 l 301 511 l 443 511 q 558 523 509 511 q 647 565 607 535 q 716 650 691 599 q 741 759 741 701 m 892 0 l 734 0 l 469 404 l 276 404 l 183 0 l 48 0 l 280 1010 l 555 1010 q 705 998 647 1010 q 805 955 763 986 q 865 887 843 927 q 887 789 887 848 q 808 568 887 663 q 601 435 729 473 l 892 0 "},"ю":{"x_min":38,"x_max":1105,"ha":1165,"o":"m 971 479 q 926 624 971 575 q 801 673 882 673 q 686 641 737 673 q 597 555 635 610 q 543 431 563 503 q 524 280 524 359 q 568 135 524 186 q 695 85 612 85 q 811 117 760 85 q 897 203 863 150 q 952 328 933 257 q 971 479 971 398 m 1105 489 q 1074 296 1105 389 q 987 131 1044 202 q 851 19 930 60 q 676 -21 772 -21 q 470 55 544 -21 q 396 268 396 132 q 396 305 396 289 q 400 345 397 322 l 246 345 l 166 0 l 38 0 l 212 758 l 340 758 l 269 447 l 420 447 q 479 579 441 518 q 568 684 518 640 q 684 753 619 728 q 823 779 749 779 q 1027 703 950 779 q 1105 489 1105 628 "},"o":{"x_min":60,"x_max":783,"ha":843,"o":"m 783 489 q 751 294 783 388 q 663 131 720 200 q 527 19 604 59 q 346 -21 449 -21 q 135 56 211 -21 q 60 268 60 133 q 90 462 60 370 q 180 627 121 555 q 318 737 236 696 q 497 779 400 779 q 705 704 628 779 q 783 489 783 629 m 575 203 q 631 329 612 257 q 651 479 651 400 q 605 624 651 575 q 476 673 559 673 q 358 641 410 673 q 268 554 306 609 q 211 428 231 501 q 192 279 192 356 q 237 135 192 185 q 366 85 283 85 q 485 116 432 85 q 575 203 538 147 "},"5":{"x_min":61,"x_max":918,"ha":883,"o":"m 663 98 q 524 10 604 42 q 338 -21 445 -21 q 182 0 255 -21 q 61 44 109 19 l 88 176 l 97 176 q 211 118 139 144 q 358 92 282 92 q 562 165 485 92 q 640 357 640 238 q 622 434 640 403 q 574 483 604 464 q 502 510 544 502 q 414 519 460 519 q 295 510 355 519 q 193 493 235 501 l 312 1010 l 918 1010 l 891 896 l 417 896 l 353 617 q 407 623 381 621 q 461 626 434 626 q 698 560 613 626 q 784 381 784 494 q 752 226 784 299 q 663 98 721 153 "},"Ѕ":{"x_min":35,"x_max":947,"ha":950,"o":"m 396 -18 q 209 2 298 -18 q 35 66 120 23 l 67 220 l 77 220 q 236 125 142 158 q 419 93 331 93 q 641 150 564 93 q 718 295 718 207 q 690 373 718 342 q 610 419 663 405 q 505 443 566 432 q 389 467 444 454 q 225 548 283 491 q 167 691 167 606 q 289 932 167 836 q 605 1028 411 1028 q 798 1006 711 1028 q 947 954 884 984 l 916 810 l 906 810 q 769 885 858 853 q 581 917 680 917 q 384 862 458 917 q 311 725 311 808 q 337 647 311 680 q 431 596 363 613 q 547 571 475 586 q 667 543 619 556 q 814 465 764 517 q 864 333 864 413 q 831 201 864 267 q 740 89 798 135 q 594 10 678 38 q 396 -18 510 -18 "},"п":{"x_min":38,"x_max":848.84375,"ha":885,"o":"m 672 0 l 544 0 l 696 656 l 318 656 l 166 0 l 38 0 l 213 758 l 848 758 l 672 0 "},"7":{"x_min":102,"x_max":939,"ha":883,"o":"m 904 858 l 255 0 l 102 0 l 792 896 l 217 896 l 242 1010 l 939 1010 l 904 858 "},"K":{"x_min":51,"x_max":1062,"ha":962,"o":"m 872 0 l 712 0 l 401 450 l 262 332 l 186 0 l 51 0 l 284 1010 l 420 1010 l 298 485 l 891 1010 l 1062 1010 l 508 526 l 872 0 "},",":{"x_min":-40,"x_max":353,"ha":505,"o":"m 353 193 l 58 -251 l -40 -251 l 179 193 l 353 193 "},"d":{"x_min":58,"x_max":895.96875,"ha":865,"o":"m 895 1055 l 652 0 l 525 0 l 543 79 q 404 0 457 20 q 290 -21 352 -21 q 120 46 183 -21 q 58 244 58 114 q 91 450 58 353 q 184 621 125 548 q 320 736 241 694 q 486 779 398 779 q 598 766 547 779 q 692 727 648 753 l 768 1055 l 895 1055 m 668 621 q 579 656 623 645 q 486 668 535 668 q 360 634 416 668 q 266 541 305 600 q 211 412 230 487 q 192 266 192 336 q 227 139 192 183 q 342 96 263 96 q 458 124 399 96 q 568 186 518 153 l 668 621 "},"E":{"x_min":48,"x_max":946,"ha":878,"o":"m 946 1010 l 919 896 l 388 896 l 322 610 l 854 610 l 827 496 l 296 496 l 208 114 l 740 114 l 713 0 l 48 0 l 280 1010 l 946 1010 "},"Y":{"x_min":144,"x_max":992,"ha":855,"o":"m 992 1010 l 508 442 l 406 0 l 271 0 l 370 428 l 144 1010 l 287 1010 l 463 556 l 844 1010 l 992 1010 "},"\"":{"x_min":207,"x_max":682,"ha":638,"o":"m 682 1055 l 558 662 l 469 662 l 534 1055 l 682 1055 m 420 1055 l 296 662 l 207 662 l 272 1055 l 420 1055 "},"‹":{"x_min":134,"x_max":589,"ha":631,"o":"m 438 117 l 134 412 l 147 473 l 589 768 l 556 625 l 260 435 l 468 245 l 438 117 "},"Є":{"x_min":91,"x_max":1029,"ha":973,"o":"m 234 484 q 229 434 231 461 q 228 387 228 406 q 307 172 228 252 q 528 93 386 93 q 714 119 622 93 q 868 191 806 146 l 879 191 l 845 44 q 687 0 775 18 q 508 -18 600 -18 q 202 82 313 -18 q 91 367 91 182 q 133 627 91 509 q 255 836 175 746 q 448 976 333 925 q 704 1028 562 1028 q 884 1009 797 1028 q 1029 966 970 991 l 997 820 l 986 820 q 858 890 940 863 q 680 917 775 917 q 423 835 537 917 q 260 596 310 753 l 830 596 l 804 484 l 234 484 "},"″":{"x_min":147,"x_max":824,"ha":774,"o":"m 544 1010 l 244 590 l 147 590 l 375 1010 l 544 1010 m 824 1010 l 524 590 l 427 590 l 655 1010 l 824 1010 "},"„":{"x_min":-98,"x_max":538,"ha":638,"o":"m 538 192 l 266 -187 l 176 -187 l 375 192 l 538 192 m 264 192 l -7 -187 l -98 -187 l 101 192 l 264 192 "},"ч":{"x_min":112,"x_max":804.5,"ha":841,"o":"m 628 0 l 500 0 l 567 291 q 447 260 505 273 q 326 248 389 248 q 172 293 232 248 q 112 422 112 339 q 114 460 112 440 q 120 497 117 481 l 181 758 l 310 758 l 263 553 q 254 508 258 534 q 250 464 250 481 q 256 416 250 435 q 279 382 262 396 q 320 359 297 366 q 390 353 342 353 q 483 362 431 353 q 589 386 535 371 l 675 758 l 804 758 l 628 0 "},"|":{"x_min":286,"x_max":404,"ha":631,"o":"m 404 -266 l 286 -266 l 286 1055 l 404 1055 l 404 -266 "},"џ":{"x_min":38,"x_max":848.5,"ha":885,"o":"m 299 0 l 38 0 l 213 758 l 342 758 l 190 102 l 566 102 l 719 758 l 848 758 l 672 0 l 418 0 l 375 -182 l 256 -182 l 299 0 "},"љ":{"x_min":-58,"x_max":1185,"ha":1270,"o":"m 1051 265 q 1043 306 1051 288 q 1016 338 1035 325 q 956 359 990 356 q 851 363 921 363 l 734 363 l 672 96 l 798 96 q 905 102 867 96 q 974 125 944 108 q 1030 182 1010 145 q 1051 265 1051 218 m 1185 283 q 1151 155 1185 214 q 1063 61 1117 95 q 959 14 1013 28 q 824 0 904 0 l 522 0 l 673 656 l 391 656 q 363 542 376 593 q 339 447 351 490 q 294 292 316 355 q 254 191 273 229 q 212 117 231 146 q 174 70 192 89 q 91 12 131 25 q 6 -1 50 -1 q -27 0 -4 -1 q -58 0 -51 0 l -32 111 l -25 111 q -10 110 -20 111 q 6 110 0 110 q 41 115 21 110 q 74 132 61 121 q 153 247 114 165 q 232 480 192 329 q 264 610 244 530 q 300 758 284 690 l 825 758 l 756 460 l 916 460 q 1048 451 1002 460 q 1134 407 1093 442 q 1172 353 1159 385 q 1185 283 1185 321 "},"И":{"x_min":48,"x_max":1052.15625,"ha":1042,"o":"m 819 0 l 685 0 l 869 798 l 184 0 l 48 0 l 280 1010 l 415 1010 l 232 223 l 909 1010 l 1052 1010 l 819 0 "},"й":{"x_min":38,"x_max":851.484375,"ha":889,"o":"m 676 0 l 549 0 l 681 569 l 155 0 l 38 0 l 213 758 l 340 758 l 211 200 l 730 758 l 851 758 l 676 0 m 810 1056 q 716 898 787 954 q 532 843 644 843 q 381 888 431 843 q 331 1007 331 933 q 332 1031 331 1021 q 335 1056 333 1042 l 448 1056 q 445 1033 446 1046 q 444 1010 444 1021 q 469 940 444 963 q 544 917 494 917 q 640 950 603 917 q 692 1056 677 984 l 810 1056 "},"b":{"x_min":38,"x_max":807,"ha":865,"o":"m 807 518 q 772 307 807 407 q 680 135 737 206 q 545 20 619 61 q 380 -21 470 -21 q 267 -5 320 -21 q 173 37 215 10 l 156 0 l 38 0 l 281 1055 l 408 1055 l 321 678 q 445 750 384 722 q 579 779 505 779 q 748 710 689 779 q 807 518 807 641 m 597 213 q 654 343 635 272 q 673 493 673 413 q 637 618 673 574 q 525 662 602 662 q 409 634 469 662 q 297 571 349 606 l 197 137 q 281 101 240 114 q 379 89 322 89 q 505 123 449 89 q 597 213 560 158 "},"q":{"x_min":58,"x_max":826.6875,"ha":865,"o":"m 826 758 l 588 -279 l 460 -279 l 545 85 q 423 12 480 39 q 290 -15 365 -15 q 120 49 183 -15 q 58 244 58 114 q 91 450 58 353 q 183 621 125 548 q 320 736 241 694 q 486 779 398 779 q 597 766 546 779 q 692 727 648 753 l 706 758 l 826 758 m 668 622 q 579 657 622 645 q 486 669 535 669 q 359 634 413 669 q 266 542 304 599 q 211 412 230 488 q 192 266 192 336 q 227 142 192 183 q 343 102 263 102 q 459 130 399 102 q 569 193 519 159 l 668 622 "},"Љ":{"x_min":-73,"x_max":1490,"ha":1553,"o":"m 1346 357 q 1335 418 1346 390 q 1301 463 1324 445 q 1221 494 1267 489 q 1084 500 1175 500 l 906 500 l 816 111 l 1006 111 q 1148 120 1099 111 q 1239 155 1196 129 q 1319 239 1293 188 q 1346 357 1346 290 m 1490 379 q 1446 205 1490 282 q 1333 79 1403 127 q 1198 16 1267 33 q 1026 0 1129 0 l 655 0 l 862 896 l 502 896 q 464 743 484 824 q 430 609 444 663 q 369 398 399 488 q 312 253 339 309 q 258 154 285 194 q 206 88 231 114 q 106 16 156 35 q 0 -2 56 -2 q -39 0 -14 -2 q -73 0 -64 0 l -43 128 l -33 128 q -13 126 -26 127 q 10 126 0 126 q 58 134 34 126 q 100 157 82 142 q 206 317 158 204 q 306 632 254 431 q 348 798 325 704 q 400 1010 371 891 l 1023 1010 l 931 611 l 1149 611 q 1313 598 1252 611 q 1425 540 1374 585 q 1473 471 1457 512 q 1490 379 1490 430 "},"р":{"x_min":-26,"x_max":807,"ha":865,"o":"m 807 518 q 772 306 807 405 q 679 138 737 207 q 544 26 621 67 q 379 -15 467 -15 q 267 -1 318 -15 q 174 39 216 12 l 101 -279 l -26 -279 l 213 758 l 340 758 l 322 678 q 446 750 385 722 q 580 779 507 779 q 749 710 691 779 q 807 518 807 641 m 673 493 q 637 618 673 574 q 525 662 602 662 q 409 634 469 662 q 297 571 349 606 l 198 141 q 282 106 242 118 q 378 95 322 95 q 504 128 448 95 q 596 217 560 162 q 654 343 635 274 q 673 493 673 413 "},"т":{"x_min":70,"x_max":770,"ha":689,"o":"m 745 656 l 471 656 l 321 0 l 193 0 l 342 656 l 70 656 l 94 758 l 770 758 l 745 656 "},"П":{"x_min":48,"x_max":1054.453125,"ha":1044,"o":"m 1054 1010 l 821 0 l 686 0 l 892 896 l 390 896 l 183 0 l 48 0 l 280 1010 l 1054 1010 "},"z":{"x_min":-21,"x_max":748,"ha":730,"o":"m 591 0 l -21 0 l 0 95 l 563 656 l 130 656 l 153 758 l 748 758 l 726 667 l 160 102 l 615 102 l 591 0 "},"™":{"x_min":201,"x_max":1290,"ha":1356,"o":"m 1290 533 l 1206 533 l 1206 951 l 1192 951 l 1031 645 l 978 645 l 815 955 l 799 955 l 799 533 l 716 533 l 716 1010 l 877 1010 l 1006 751 l 1136 1010 l 1290 1010 l 1290 533 m 597 931 l 442 931 l 442 533 l 356 533 l 356 931 l 201 931 l 201 1010 l 597 1010 l 597 931 "},"Ж":{"x_min":-60,"x_max":1437,"ha":1352,"o":"m 1249 0 l 1098 0 l 834 464 l 762 464 l 655 0 l 521 0 l 627 464 l 561 464 l 110 0 l -60 0 l 458 529 q 386 614 410 564 q 357 735 362 665 q 347 808 353 779 q 325 856 340 836 q 283 884 309 875 q 214 893 257 893 l 177 893 l 204 1010 l 249 1010 q 411 964 360 1010 q 476 806 463 918 q 483 754 478 786 q 490 702 487 721 q 539 596 503 630 q 648 554 576 561 l 753 1010 l 888 1010 l 782 553 q 899 591 847 559 q 999 702 950 624 q 1031 755 1014 725 q 1061 807 1048 784 q 1204 967 1130 925 q 1388 1010 1277 1010 l 1437 1010 l 1409 893 l 1369 893 q 1302 884 1329 893 q 1251 855 1276 875 q 1209 806 1228 835 q 1167 735 1189 776 q 1067 595 1116 644 q 954 518 1017 546 l 1249 0 "},"и":{"x_min":38,"x_max":851.484375,"ha":889,"o":"m 676 0 l 549 0 l 681 569 l 155 0 l 38 0 l 213 758 l 340 758 l 211 200 l 730 758 l 851 758 l 676 0 "},"~":{"x_min":156,"x_max":1039,"ha":1137,"o":"m 1039 629 q 1023 496 1037 561 q 979 380 1009 431 q 904 298 948 328 q 792 269 859 269 q 719 278 751 269 q 660 306 687 288 q 614 346 634 324 q 572 391 593 367 q 534 435 554 411 q 496 477 514 459 q 455 507 476 495 q 406 519 433 519 q 309 459 343 519 q 269 268 275 399 l 156 268 q 171 399 157 335 q 215 516 185 463 q 290 597 244 566 q 402 628 337 628 q 477 617 444 628 q 536 589 510 607 q 582 550 561 572 q 623 505 602 529 q 661 461 638 487 q 699 419 683 434 q 740 389 720 400 q 788 378 761 378 q 886 438 852 378 q 926 629 921 499 l 1039 629 "},"Н":{"x_min":48,"x_max":1054.046875,"ha":1044,"o":"m 1054 1010 l 821 0 l 687 0 l 801 496 l 296 496 l 182 0 l 48 0 l 280 1010 l 415 1010 l 322 610 l 827 610 l 919 1010 l 1054 1010 "},"ф":{"x_min":57,"x_max":1112,"ha":1168,"o":"m 1112 510 q 1079 306 1112 402 q 992 141 1046 210 q 865 30 937 71 q 714 -11 793 -11 q 631 3 669 -11 q 567 33 594 18 l 495 -279 l 368 -279 l 440 33 q 362 0 392 9 q 290 -11 333 -11 q 119 62 182 -11 q 57 264 57 135 q 90 464 57 371 q 179 629 123 558 q 306 735 234 696 q 452 775 378 775 q 536 760 495 775 q 601 729 578 745 l 676 1055 l 804 1055 l 728 729 q 802 761 764 747 q 883 775 840 775 q 1052 703 992 775 q 1112 510 1112 631 m 977 485 q 942 620 977 570 q 835 670 907 670 q 771 662 795 670 q 708 640 746 655 l 588 124 q 645 102 614 111 q 711 93 677 93 q 823 126 773 93 q 906 213 873 159 q 959 338 941 269 q 977 485 977 406 m 461 124 l 580 640 q 523 661 557 653 q 457 670 490 670 q 347 638 396 670 q 263 553 299 607 q 211 429 230 502 q 192 283 192 357 q 227 144 192 196 q 336 93 263 93 q 398 101 370 93 q 461 124 426 110 "},"₧":{"x_min":48,"x_max":1576,"ha":1616,"o":"m 1509 256 q 1418 62 1509 143 q 1178 -18 1328 -18 q 1047 1 1107 -18 q 948 45 987 20 l 981 188 l 987 188 q 1018 158 1000 174 q 1066 126 1035 143 q 1128 98 1095 109 q 1205 88 1161 88 q 1337 124 1290 88 q 1385 228 1385 161 q 1362 281 1385 263 q 1297 311 1340 300 q 1238 326 1271 319 q 1171 344 1205 333 q 1074 407 1104 366 q 1045 502 1045 449 q 1057 574 1045 540 q 1094 645 1070 608 l 950 645 l 801 0 l 678 0 l 827 645 l 744 645 q 699 554 726 596 q 632 480 671 513 q 491 400 565 424 q 313 376 418 376 l 262 376 l 175 0 l 48 0 l 281 1010 l 443 1010 q 686 950 604 1010 q 769 776 769 890 q 768 761 769 770 q 766 745 767 753 l 849 745 l 885 897 l 1008 897 l 972 745 l 1218 745 q 1286 767 1250 759 q 1361 776 1322 776 q 1479 760 1420 776 q 1576 720 1539 744 l 1544 585 l 1537 585 q 1445 646 1499 623 q 1333 670 1391 670 q 1216 635 1263 670 q 1169 533 1169 601 q 1188 482 1169 502 q 1252 449 1207 462 q 1314 432 1281 441 q 1376 415 1347 423 q 1474 358 1440 397 q 1509 256 1509 319 m 634 751 q 622 814 634 785 q 586 861 611 842 q 516 893 558 882 q 415 904 474 904 l 384 904 l 287 485 l 313 485 q 449 500 394 485 q 541 548 503 516 q 610 639 587 586 q 634 751 634 692 "},"л":{"x_min":-58,"x_max":825.59375,"ha":862,"o":"m 650 0 l 521 0 l 672 656 l 391 656 q 364 542 377 593 q 340 447 352 490 q 295 292 317 355 q 255 191 274 229 q 212 117 232 146 q 174 70 193 89 q 91 12 132 25 q 7 -1 51 -1 q -27 0 -4 -1 q -58 0 -51 0 l -32 111 l -25 111 q -10 110 -20 111 q 6 110 0 110 q 41 115 21 110 q 74 132 61 121 q 153 247 114 165 q 232 480 192 329 q 264 610 245 530 q 300 758 284 690 l 825 758 l 650 0 "},"[":{"x_min":14,"x_max":672,"ha":631,"o":"m 366 -266 l 14 -266 l 319 1055 l 672 1055 l 650 963 l 415 963 l 152 -174 l 388 -174 l 366 -266 "},"Щ":{"x_min":48,"x_max":1440.6875,"ha":1451,"o":"m 1178 0 l 48 0 l 280 1010 l 416 1010 l 209 114 l 587 114 l 793 1010 l 928 1010 l 722 114 l 1099 114 l 1305 1010 l 1440 1010 l 1234 114 l 1333 114 l 1253 -229 l 1125 -229 l 1178 0 "},"L":{"x_min":48,"x_max":713,"ha":773,"o":"m 686 0 l 48 0 l 281 1010 l 417 1010 l 210 114 l 713 114 l 686 0 "},"К":{"x_min":51,"x_max":1035,"ha":962,"o":"m 872 0 l 710 0 l 394 461 l 293 461 l 186 0 l 51 0 l 283 1010 l 419 1010 l 315 557 q 380 564 346 557 q 443 585 415 570 q 508 630 476 602 q 570 702 539 659 q 603 750 585 723 q 638 806 620 777 q 785 966 715 923 q 974 1010 854 1010 l 1035 1010 l 1007 893 l 946 893 q 875 881 906 893 q 819 844 845 869 q 773 786 794 821 q 732 722 751 752 q 625 587 672 628 q 514 517 577 545 l 872 0 "}," ":{"x_min":0,"x_max":0,"ha":488},"∑":{"x_min":156,"x_max":958,"ha":1010,"o":"m 958 -128 l 156 -128 l 156 1 l 613 454 l 163 882 l 163 1010 l 932 1010 l 932 891 l 328 891 l 767 483 l 767 434 l 314 -9 l 958 -9 l 958 -128 "},"%":{"x_min":128,"x_max":1415,"ha":1495,"o":"m 331 430 q 179 480 231 430 q 128 630 128 531 q 213 918 128 808 q 445 1029 298 1029 q 596 977 544 1029 q 648 828 648 926 q 565 543 648 657 q 331 430 482 430 m 489 620 q 518 720 509 666 q 528 829 528 773 q 504 913 528 885 q 427 942 481 942 q 344 913 378 942 q 287 838 309 885 q 257 742 267 798 q 247 630 247 687 q 269 546 247 575 q 348 517 292 517 q 432 545 397 517 q 489 620 468 573 m 1098 -20 q 946 30 998 -20 q 895 180 895 81 q 980 468 895 358 q 1212 579 1065 579 q 1363 527 1311 579 q 1415 378 1415 476 q 1332 93 1415 207 q 1098 -20 1249 -20 m 1256 170 q 1286 270 1277 216 q 1295 379 1295 323 q 1271 463 1295 435 q 1194 492 1248 492 q 1111 463 1145 492 q 1054 388 1076 435 q 1024 292 1034 348 q 1014 180 1014 237 q 1036 96 1014 125 q 1115 67 1059 67 q 1199 95 1164 67 q 1256 170 1235 123 m 1182 1010 l 475 0 l 362 0 l 1068 1010 l 1182 1010 "},"P":{"x_min":48,"x_max":881,"ha":838,"o":"m 743 481 q 604 404 680 429 q 418 379 527 379 l 271 379 l 183 0 l 48 0 l 281 1010 l 547 1010 q 700 993 639 1010 q 798 946 760 977 q 859 872 838 916 q 881 767 881 829 q 845 610 881 684 q 743 481 809 536 m 737 743 q 725 808 737 778 q 689 857 713 838 q 620 889 660 879 q 517 899 581 899 l 391 899 l 296 488 l 417 488 q 552 502 498 488 q 645 550 606 517 q 714 636 691 588 q 737 743 737 685 "},"∏":{"x_min":133,"x_max":1076,"ha":1137,"o":"m 1076 892 l 940 892 l 940 -131 l 806 -131 l 806 892 l 403 892 l 403 -131 l 269 -131 l 269 892 l 133 892 l 133 1010 l 1076 1010 l 1076 892 "},"_":{"x_min":-137,"x_max":770,"ha":883,"o":"m 770 -122 l 751 -203 l -137 -203 l -118 -122 l 770 -122 "},"+":{"x_min":171,"x_max":1024,"ha":1137,"o":"m 1024 387 l 654 387 l 654 17 l 541 17 l 541 387 l 171 387 l 171 496 l 541 496 l 541 866 l 654 866 l 654 496 l 1024 496 l 1024 387 "},"‚":{"x_min":-98,"x_max":267,"ha":373,"o":"m 267 192 l -4 -187 l -98 -187 l 101 192 l 267 192 "},"₣":{"x_min":2,"x_max":919,"ha":883,"o":"m 893 899 l 413 899 l 345 602 l 787 602 l 761 491 l 319 491 l 275 303 l 501 303 l 479 211 l 254 211 l 205 0 l 77 0 l 125 211 l 2 211 l 23 303 l 147 303 l 310 1010 l 919 1010 l 893 899 "},"ѓ":{"x_min":38,"x_max":751,"ha":654,"o":"m 711 656 l 318 656 l 166 0 l 38 0 l 213 758 l 735 758 l 711 656 m 751 1137 l 509 883 l 404 883 l 576 1137 l 751 1137 "},"ы":{"x_min":37,"x_max":1065.984375,"ha":1103,"o":"m 566 265 q 558 306 566 288 q 531 338 550 325 q 471 359 505 356 q 366 363 436 363 l 249 363 l 187 96 l 313 96 q 420 102 382 96 q 489 125 459 108 q 545 182 525 145 q 566 265 566 218 m 700 283 q 666 155 700 214 q 578 61 632 95 q 474 14 528 28 q 339 0 419 0 l 37 0 l 212 758 l 340 758 l 271 460 l 431 460 q 563 451 517 460 q 649 407 608 442 q 687 353 674 385 q 700 283 700 321 m 890 0 l 762 0 l 937 758 l 1065 758 l 890 0 "},"'":{"x_min":204,"x_max":420,"ha":373,"o":"m 420 1055 l 296 662 l 204 662 l 269 1055 l 420 1055 "},"ї":{"x_min":39,"x_max":506,"ha":381,"o":"m 343 758 l 168 0 l 39 0 l 214 758 l 343 758 m 506 1017 l 475 885 l 347 885 l 377 1017 l 506 1017 m 259 1017 l 228 885 l 100 885 l 130 1017 l 259 1017 "},"Р":{"x_min":48,"x_max":881,"ha":838,"o":"m 743 481 q 604 404 680 429 q 418 379 527 379 l 271 379 l 183 0 l 48 0 l 281 1010 l 547 1010 q 700 993 639 1010 q 798 946 760 977 q 859 872 838 916 q 881 767 881 829 q 845 610 881 684 q 743 481 809 536 m 737 743 q 725 808 737 778 q 689 857 713 838 q 620 889 660 879 q 517 899 581 899 l 391 899 l 296 488 l 417 488 q 552 502 498 488 q 645 550 606 517 q 714 636 691 588 q 737 743 737 685 "},"щ":{"x_min":38,"x_max":1180.53125,"ha":1233,"o":"m 979 0 l 38 0 l 213 758 l 342 758 l 190 102 l 479 102 l 632 758 l 760 758 l 608 102 l 898 102 l 1051 758 l 1180 758 l 1028 102 l 1122 102 l 1057 -182 l 937 -182 l 979 0 "},"T":{"x_min":119,"x_max":1001,"ha":856,"o":"m 975 896 l 616 896 l 408 0 l 273 0 l 480 896 l 119 896 l 144 1010 l 1001 1010 l 975 896 "},"Њ":{"x_min":48,"x_max":1469,"ha":1532,"o":"m 1325 357 q 1314 418 1325 390 q 1280 463 1303 445 q 1200 494 1246 489 q 1063 500 1154 500 l 885 500 l 796 111 l 986 111 q 1127 120 1079 111 q 1218 155 1175 129 q 1298 239 1272 188 q 1325 357 1325 290 m 1469 379 q 1425 205 1469 282 q 1312 79 1382 127 q 1177 16 1246 33 q 1005 0 1108 0 l 634 0 l 749 500 l 298 500 l 183 0 l 48 0 l 280 1010 l 416 1010 l 324 611 l 774 611 l 866 1010 l 1003 1010 l 911 611 l 1128 611 q 1292 598 1231 611 q 1404 540 1353 585 q 1452 471 1436 512 q 1469 379 1469 430 "},"℮":{"x_min":117,"x_max":924,"ha":997,"o":"m 896 431 l 260 431 q 254 379 256 407 q 252 330 252 351 q 318 152 252 217 q 501 88 384 88 q 600 99 548 88 q 696 129 652 111 q 771 166 740 148 q 826 200 803 183 l 835 200 l 806 55 q 656 5 738 28 q 486 -18 573 -18 q 213 67 310 -18 q 117 316 117 152 q 267 735 117 568 q 628 902 417 902 q 846 829 769 902 q 924 621 924 757 q 920 568 924 601 q 911 504 917 535 l 896 431 m 788 530 q 793 571 791 551 q 796 612 796 591 q 745 752 796 702 q 598 802 695 802 q 398 723 485 802 q 281 530 312 644 l 788 530 "},"є":{"x_min":59,"x_max":771,"ha":760,"o":"m 636 32 q 515 -3 576 9 q 381 -17 455 -17 q 143 59 227 -17 q 59 275 59 135 q 95 481 59 388 q 199 640 132 573 q 351 740 263 705 q 536 775 438 775 q 667 756 606 775 q 771 716 728 738 l 744 582 l 736 582 q 625 647 686 625 q 507 669 565 669 q 329 613 411 669 q 211 447 247 558 l 605 447 l 586 351 l 192 351 q 190 324 191 338 q 190 294 190 309 q 243 141 190 193 q 394 89 296 89 q 536 111 466 89 q 654 169 606 134 l 663 169 l 636 32 "},"j":{"x_min":-182,"x_max":509,"ha":478,"o":"m 478 885 l 334 885 l 364 1017 l 509 1017 l 478 885 m 263 -17 q 154 -217 232 -149 q -38 -286 77 -286 q -109 -280 -65 -286 q -182 -266 -153 -275 l -155 -150 l -148 -150 q -102 -167 -129 -158 q -40 -176 -75 -176 q 39 -161 7 -176 q 91 -117 71 -146 q 124 -46 111 -89 q 147 41 137 -4 l 289 656 l 131 656 l 154 758 l 441 758 l 263 -17 "},"1":{"x_min":105,"x_max":679.515625,"ha":883,"o":"m 652 0 l 105 0 l 128 98 l 336 98 l 495 785 l 284 785 l 303 872 q 486 904 421 872 q 573 1013 551 937 l 679 1013 l 467 98 l 676 98 l 652 0 "},"›":{"x_min":71,"x_max":526,"ha":631,"o":"m 512 412 l 71 117 l 103 259 l 398 449 l 192 639 l 221 768 l 526 473 l 512 412 "},"ћ":{"x_min":38,"x_max":797,"ha":879,"o":"m 797 584 q 793 540 797 568 q 785 491 790 513 l 671 0 l 544 0 l 643 431 q 656 494 651 467 q 660 547 660 520 q 632 633 660 604 q 530 662 604 662 q 417 633 479 662 q 295 565 355 605 l 165 0 l 38 0 l 237 863 l 124 863 l 144 951 l 257 951 l 281 1055 l 408 1055 l 384 951 l 604 951 l 583 863 l 364 863 l 321 673 q 456 751 393 724 q 587 779 520 779 q 741 729 686 779 q 797 584 797 679 "},"ℓ":{"x_min":10,"x_max":438,"ha":449,"o":"m 10 285 l 130 445 l 130 753 q 171 958 130 906 q 288 1010 213 1010 q 395 965 353 1010 q 438 848 438 921 q 397 696 438 785 q 245 450 356 606 l 245 169 q 254 94 245 109 q 282 80 264 80 q 323 91 300 80 q 418 153 346 102 l 418 43 q 342 -1 380 13 q 265 -16 303 -16 q 166 22 202 -16 q 130 147 130 61 l 130 299 l 76 233 l 10 285 m 245 608 q 327 766 311 723 q 343 847 343 810 q 338 884 343 867 q 325 912 334 900 q 310 924 318 920 q 291 929 301 929 q 273 924 281 929 q 260 911 264 920 q 249 859 253 897 q 245 762 245 822 l 245 608 "},"Т":{"x_min":119,"x_max":1001,"ha":856,"o":"m 975 896 l 616 896 l 408 0 l 273 0 l 480 896 l 119 896 l 144 1010 l 1001 1010 l 975 896 "},"<":{"x_min":201,"x_max":984,"ha":1137,"o":"m 984 52 l 201 399 l 201 484 l 984 832 l 984 710 l 365 442 l 984 173 l 984 52 "},"Ц":{"x_min":48,"x_max":1048.8125,"ha":1057,"o":"m 783 0 l 48 0 l 281 1010 l 416 1010 l 209 114 l 704 114 l 913 1010 l 1048 1010 l 839 114 l 938 114 l 858 -229 l 729 -229 l 783 0 "},"t":{"x_min":87,"x_max":606,"ha":547,"o":"m 606 758 l 582 655 l 319 655 l 238 304 q 226 243 232 278 q 221 188 221 209 q 246 115 221 139 q 339 91 271 91 q 405 100 367 91 q 457 115 443 109 l 464 115 l 440 6 q 359 -8 402 -2 q 282 -15 316 -15 q 138 26 189 -15 q 87 156 87 67 q 90 199 87 177 q 98 247 93 220 l 192 655 l 106 655 l 129 758 l 216 758 l 266 976 l 394 976 l 343 758 l 606 758 "},"W":{"x_min":197,"x_max":1450,"ha":1375,"o":"m 1450 1010 l 965 0 l 810 0 l 780 836 l 387 0 l 238 0 l 197 1010 l 333 1010 l 359 171 l 756 1010 l 892 1010 l 919 162 l 1318 1010 l 1450 1010 "},"а":{"x_min":26,"x_max":755,"ha":834,"o":"m 591 400 q 406 384 487 395 q 272 349 325 372 q 189 288 217 327 q 161 193 161 250 q 194 118 161 144 q 296 93 227 93 q 422 120 358 93 q 541 187 486 148 l 591 400 m 517 81 q 467 50 499 70 q 403 15 436 30 q 326 -10 369 0 q 228 -21 283 -21 q 82 31 138 -21 q 26 168 26 84 q 65 321 26 259 q 183 422 105 383 q 367 478 259 461 q 614 500 475 495 q 621 532 618 519 q 623 561 623 546 q 610 614 623 594 q 574 647 598 634 q 519 663 550 659 q 449 668 487 668 q 317 649 391 668 q 197 613 243 631 l 191 613 l 216 740 q 329 763 254 750 q 472 776 404 776 q 684 731 613 776 q 755 592 755 687 q 751 553 755 573 q 744 514 748 532 l 626 0 l 499 0 l 517 81 "},"Ф":{"x_min":83,"x_max":1106,"ha":1132,"o":"m 1106 597 q 1057 384 1106 482 q 929 221 1009 287 q 764 134 861 165 q 567 102 668 104 l 540 -11 l 408 -11 l 434 102 q 292 129 356 105 q 181 193 228 152 q 109 291 135 234 q 83 420 83 348 q 130 632 83 535 q 259 796 178 729 q 420 881 322 849 q 622 916 518 913 l 647 1021 l 780 1021 l 755 916 q 1008 824 910 909 q 1106 597 1106 738 m 963 581 q 949 667 963 625 q 908 741 935 710 q 835 794 879 775 q 732 816 792 813 l 590 202 q 723 226 662 205 q 826 280 785 247 q 927 410 892 333 q 963 581 963 488 m 457 202 l 599 816 q 471 793 534 813 q 363 737 409 773 q 262 606 299 688 q 226 436 226 524 q 239 349 226 391 q 280 276 252 307 q 352 224 306 244 q 457 202 398 203 "},">":{"x_min":211,"x_max":994,"ha":1137,"o":"m 994 399 l 211 52 l 211 173 l 829 442 l 211 710 l 211 832 l 994 484 l 994 399 "},"v":{"x_min":121,"x_max":859,"ha":821,"o":"m 859 758 l 377 0 l 251 0 l 121 758 l 250 758 l 346 153 l 719 758 l 859 758 "},"Ї":{"x_min":4.375,"x_max":708,"ha":585,"o":"m 404 0 l 4 0 l 26 98 l 159 98 l 347 912 l 215 912 l 237 1010 l 638 1010 l 615 912 l 483 912 l 294 98 l 427 98 l 404 0 m 677 1137 l 541 1137 l 571 1269 l 708 1269 l 677 1137 m 396 1137 l 260 1137 l 290 1269 l 427 1269 l 396 1137 "},"О":{"x_min":91,"x_max":1060,"ha":1093,"o":"m 1060 652 q 1020 398 1060 520 q 905 183 980 276 q 719 33 828 88 q 474 -21 611 -21 q 192 77 294 -21 q 91 358 91 176 q 131 616 91 496 q 249 830 172 736 q 433 976 323 921 q 675 1031 543 1031 q 957 932 855 1031 q 1060 652 1060 834 m 802 251 q 888 423 859 328 q 918 633 918 518 q 848 845 918 771 q 654 920 779 920 q 479 875 557 920 q 345 755 401 831 q 262 582 291 680 q 233 379 233 483 q 302 164 233 239 q 497 90 371 90 q 671 134 592 90 q 802 251 749 178 "},"&":{"x_min":60,"x_max":974,"ha":1009,"o":"m 974 0 l 814 0 l 691 149 q 515 17 601 56 q 337 -21 429 -21 q 137 46 215 -21 q 60 221 60 113 q 83 346 60 292 q 147 446 107 401 q 233 520 184 488 q 328 575 282 552 q 253 657 284 612 q 223 757 223 703 q 242 853 223 807 q 304 942 261 899 q 406 1005 344 980 q 546 1031 468 1031 q 717 978 653 1031 q 782 841 782 925 q 770 773 782 813 q 731 695 759 732 q 647 619 699 654 q 505 560 594 584 l 713 312 q 770 449 748 368 q 808 617 792 530 l 944 617 l 930 551 q 875 395 914 473 q 774 240 836 316 l 974 0 m 606 710 q 633 769 625 737 q 642 836 642 801 q 606 920 642 889 q 523 951 570 951 q 405 899 451 951 q 359 777 359 848 q 380 701 359 739 q 458 616 402 663 q 549 655 514 632 q 606 710 585 678 m 640 210 l 381 525 q 329 492 363 516 q 272 443 295 468 q 225 368 244 413 q 207 267 207 323 q 254 134 207 183 q 391 85 301 85 q 519 115 456 85 q 640 210 583 146 "},"‛":{"x_min":35,"x_max":403,"ha":373,"o":"m 403 1055 l 203 676 l 35 676 l 306 1055 l 403 1055 "},"I":{"x_min":4.375,"x_max":638.09375,"ha":585,"o":"m 404 0 l 4 0 l 26 98 l 159 98 l 347 912 l 215 912 l 237 1010 l 638 1010 l 615 912 l 483 912 l 294 98 l 427 98 l 404 0 "},"G":{"x_min":91,"x_max":1082,"ha":1077,"o":"m 533 -20 q 208 83 325 -20 q 91 376 91 186 q 134 634 91 515 q 258 841 177 753 q 458 978 340 928 q 724 1028 576 1028 q 901 1006 813 1028 q 1082 937 989 985 l 1051 784 l 1039 784 q 875 885 964 854 q 685 917 787 917 q 490 872 574 917 q 348 755 406 828 q 263 588 292 683 q 235 395 235 492 q 314 170 235 249 q 549 91 393 91 q 677 103 617 91 q 790 135 737 116 l 848 394 l 578 394 l 603 508 l 1008 508 l 907 74 q 827 41 863 56 q 737 11 791 26 q 640 -11 690 -2 q 533 -20 590 -20 "},"`":{"x_min":383,"x_max":615,"ha":883,"o":"m 615 883 l 516 883 l 383 1137 l 543 1137 l 615 883 "},"Х":{"x_min":-42,"x_max":1053,"ha":952,"o":"m 434 509 l 201 1010 l 347 1010 l 530 606 l 902 1010 l 1053 1010 l 582 506 l 818 0 l 671 0 l 485 408 l 108 0 l -42 0 l 434 509 "},"r":{"x_min":38,"x_max":679,"ha":593,"o":"m 649 624 l 643 624 q 592 633 616 630 q 536 637 569 637 q 409 608 472 637 q 289 539 347 579 l 166 0 l 38 0 l 211 758 l 339 758 l 314 646 q 467 733 404 709 q 587 758 529 758 q 635 756 620 758 q 679 749 650 754 l 649 624 "},"₤":{"x_min":10,"x_max":906,"ha":883,"o":"m 712 0 l 10 0 l 39 124 q 163 191 113 143 q 238 330 213 239 l 119 330 l 140 420 l 262 420 l 282 516 l 164 516 l 185 606 l 301 606 l 325 719 q 453 943 353 856 q 691 1030 552 1030 q 811 1019 759 1030 q 906 995 862 1008 l 874 863 l 867 863 q 795 901 842 882 q 678 921 748 921 q 530 864 587 921 q 451 706 472 808 l 429 606 l 715 606 l 693 516 l 410 516 l 389 420 l 670 420 l 648 330 l 369 330 q 291 203 346 256 q 169 118 237 151 l 169 111 l 738 111 l 712 0 "},"ж":{"x_min":-43,"x_max":1141,"ha":1108,"o":"m 1013 0 l 868 0 l 679 349 l 618 349 l 539 0 l 412 0 l 492 349 l 434 349 l 111 0 l -43 0 l 337 402 q 296 449 313 420 q 272 543 278 479 q 265 592 268 574 q 248 624 261 609 q 217 643 237 637 q 166 650 197 650 l 131 650 l 156 758 l 199 758 q 327 724 284 758 q 381 606 370 690 q 386 567 382 588 q 393 528 389 546 q 433 454 403 477 q 510 428 463 430 l 587 758 l 714 758 l 637 428 q 719 454 680 431 q 792 528 758 476 q 818 568 802 543 q 842 608 833 593 q 896 682 868 652 q 953 728 924 711 q 1018 751 983 745 q 1094 758 1053 758 l 1141 758 l 1115 648 l 1079 648 q 997 621 1030 648 q 935 542 964 595 q 863 448 901 481 q 789 397 825 414 l 1013 0 "},"x":{"x_min":-47,"x_max":869,"ha":822,"o":"m 342 382 l 131 758 l 274 758 l 429 468 l 712 758 l 869 758 l 482 376 l 694 0 l 550 0 l 393 289 l 109 0 l -47 0 l 342 382 "},"Ђ":{"x_min":118,"x_max":1038,"ha":1101,"o":"m 1038 379 q 994 205 1038 282 q 882 79 951 127 q 746 16 815 33 q 574 0 677 0 l 507 0 l 534 115 l 556 115 q 697 121 651 115 q 787 155 743 128 q 867 239 841 188 q 894 357 894 289 q 883 417 894 390 q 849 463 873 445 q 769 494 815 489 q 633 500 724 500 l 454 500 l 338 0 l 203 0 l 410 896 l 118 896 l 144 1010 l 911 1010 l 884 896 l 546 896 l 480 611 l 697 611 q 861 598 800 611 q 973 540 922 585 q 1021 471 1005 512 q 1038 379 1038 430 "},"∞":{"x_min":140,"x_max":1307,"ha":1389,"o":"m 1307 450 q 1283 300 1307 365 q 1218 193 1260 235 q 1120 129 1176 149 q 1002 109 1065 109 q 837 160 912 109 q 715 315 762 212 q 588 158 659 208 q 420 109 517 109 q 215 200 291 109 q 140 435 140 292 q 163 583 140 519 q 228 691 186 647 q 324 755 268 734 q 444 777 381 777 q 609 724 534 777 q 732 571 684 672 q 858 725 786 674 q 1026 777 931 777 q 1231 685 1155 777 q 1307 450 1307 593 m 686 495 q 581 615 644 574 q 452 656 518 656 q 304 599 358 656 q 251 436 251 542 q 293 289 251 347 q 419 232 336 232 q 537 264 495 232 q 619 362 579 297 q 657 431 641 399 q 686 495 673 463 m 1196 449 q 1150 598 1196 543 q 1027 654 1105 654 q 924 629 969 654 q 827 523 878 605 q 790 455 806 488 q 760 390 774 422 q 864 270 801 311 q 994 230 928 230 q 1143 285 1090 230 q 1196 449 1196 341 "},"с":{"x_min":59,"x_max":748,"ha":724,"o":"m 366 -17 q 239 0 294 -17 q 142 53 183 16 q 80 142 102 88 q 59 267 59 195 q 92 465 59 373 q 186 627 125 558 q 332 735 245 695 q 519 775 419 775 q 644 756 585 775 q 748 713 703 738 l 720 576 l 712 576 q 678 604 699 588 q 630 634 658 620 q 568 659 602 649 q 491 669 535 669 q 277 557 360 669 q 194 287 194 446 q 243 140 194 191 q 383 89 292 89 q 468 101 426 89 q 541 127 511 113 q 603 160 574 143 q 644 187 631 178 l 652 187 l 624 48 q 500 2 565 21 q 366 -17 434 -17 "},"h":{"x_min":38,"x_max":797,"ha":879,"o":"m 797 584 q 793 540 797 568 q 785 491 790 513 l 671 0 l 544 0 l 643 431 q 656 494 651 467 q 660 547 660 520 q 632 633 660 604 q 530 662 604 662 q 417 633 479 662 q 295 565 355 605 l 165 0 l 38 0 l 281 1055 l 408 1055 l 321 673 q 456 751 393 724 q 587 779 520 779 q 741 729 686 779 q 797 584 797 679 "},"я":{"x_min":-42,"x_max":796.078125,"ha":833,"o":"m 620 0 l 492 0 l 562 303 l 426 303 l 122 0 l -42 0 l 287 316 q 176 382 214 338 q 139 489 139 426 q 174 623 139 568 q 276 715 210 677 q 377 749 322 741 q 494 758 432 758 l 796 758 l 620 0 m 583 397 l 645 662 l 476 662 q 401 658 426 662 q 347 639 377 655 q 292 585 313 623 q 271 499 271 546 q 276 462 271 478 q 295 433 282 446 q 352 404 319 411 q 430 397 385 397 l 583 397 "},".":{"x_min":83,"x_max":291,"ha":505,"o":"m 246 0 l 83 0 l 127 193 l 291 193 l 246 0 "},"Ё":{"x_min":48,"x_max":946,"ha":878,"o":"m 946 1010 l 919 896 l 388 896 l 322 610 l 854 610 l 827 496 l 296 496 l 208 114 l 740 114 l 713 0 l 48 0 l 280 1010 l 946 1010 m 840 1137 l 704 1137 l 734 1269 l 871 1269 l 840 1137 m 559 1137 l 423 1137 l 453 1269 l 590 1269 l 559 1137 "},";":{"x_min":16,"x_max":485,"ha":631,"o":"m 440 565 l 277 565 l 321 758 l 485 758 l 440 565 m 409 193 l 114 -251 l 16 -251 l 235 193 l 409 193 "},"f":{"x_min":46,"x_max":681,"ha":488,"o":"m 654 937 l 647 937 q 595 949 628 943 q 537 956 563 956 q 412 913 453 956 q 349 783 370 871 l 343 758 l 573 758 l 548 656 l 322 656 l 175 0 l 46 0 l 193 656 l 108 656 l 132 758 l 218 758 l 223 783 q 332 988 251 915 q 541 1062 413 1062 q 618 1057 583 1062 q 681 1048 653 1053 l 654 937 "},"“":{"x_min":144,"x_max":602,"ha":638,"o":"m 602 676 l 514 676 l 418 1055 l 577 1055 l 602 676 m 328 676 l 240 676 l 144 1055 l 303 1055 l 328 676 "},"Г":{"x_min":48,"x_max":935,"ha":787,"o":"m 908 896 l 391 896 l 183 0 l 48 0 l 281 1010 l 935 1010 l 908 896 "},"A":{"x_min":-58,"x_max":855,"ha":948,"o":"m 855 0 l 719 0 l 686 283 l 248 283 l 83 0 l -58 0 l 543 1010 l 721 1010 l 855 0 m 671 394 l 608 893 l 313 394 l 671 394 "},"6":{"x_min":91,"x_max":830,"ha":883,"o":"m 403 -21 q 173 70 255 -21 q 91 322 91 162 q 132 595 91 468 q 253 820 173 721 q 449 972 332 915 q 711 1029 566 1029 q 782 1024 754 1029 q 830 1013 811 1019 l 806 892 l 799 892 q 746 907 783 899 q 668 916 708 916 q 410 821 523 916 q 257 576 297 727 q 383 629 316 610 q 517 648 450 648 q 630 632 579 648 q 722 582 681 616 q 787 496 766 546 q 808 380 808 445 q 693 96 808 213 q 403 -21 578 -21 m 666 365 q 615 495 666 450 q 466 541 565 541 q 356 525 415 541 q 241 480 298 509 q 230 405 234 450 q 226 318 226 360 q 243 207 226 252 q 285 137 260 162 q 347 97 312 109 q 419 85 382 85 q 597 162 528 85 q 666 365 666 239 "},"‘":{"x_min":144,"x_max":331,"ha":373,"o":"m 331 676 l 240 676 l 144 1055 l 306 1055 l 331 676 "},"Ь":{"x_min":48,"x_max":882,"ha":945,"o":"m 738 357 q 727 418 738 390 q 693 463 717 445 q 613 494 659 489 q 477 500 568 500 l 299 500 l 210 111 l 399 111 q 540 120 492 111 q 631 155 589 129 q 711 239 685 188 q 738 357 738 290 m 882 379 q 838 205 882 282 q 726 79 795 127 q 590 16 659 33 q 418 0 521 0 l 48 0 l 280 1010 l 417 1010 l 325 611 l 542 611 q 706 598 645 611 q 817 540 766 585 q 865 471 849 512 q 882 379 882 430 "},"O":{"x_min":91,"x_max":1060,"ha":1093,"o":"m 1060 652 q 1020 398 1060 520 q 905 183 980 276 q 719 33 828 88 q 474 -21 611 -21 q 192 77 294 -21 q 91 358 91 176 q 131 616 91 496 q 249 830 172 736 q 433 976 323 921 q 675 1031 543 1031 q 957 932 855 1031 q 1060 652 1060 834 m 802 251 q 888 423 859 328 q 918 633 918 518 q 848 845 918 771 q 654 920 779 920 q 479 875 557 920 q 345 755 401 831 q 262 582 291 680 q 233 379 233 483 q 302 164 233 239 q 497 90 371 90 q 671 134 592 90 q 802 251 749 178 "},"n":{"x_min":38,"x_max":797,"ha":879,"o":"m 797 584 q 793 540 797 568 q 785 491 790 513 l 671 0 l 544 0 l 643 431 q 656 494 651 467 q 660 547 660 520 q 632 633 660 604 q 531 662 604 662 q 417 633 479 662 q 296 565 355 605 l 165 0 l 38 0 l 213 758 l 340 758 l 321 674 q 457 751 393 724 q 587 779 520 779 q 741 729 686 779 q 797 584 797 679 "},"3":{"x_min":39,"x_max":852,"ha":883,"o":"m 645 88 q 508 7 586 36 q 328 -21 430 -21 q 168 0 246 -21 q 39 48 91 20 l 70 179 l 81 179 q 198 117 127 143 q 347 92 269 92 q 547 164 469 92 q 626 353 626 237 q 576 459 626 424 q 422 495 526 495 l 358 495 l 384 602 l 448 602 q 636 654 563 602 q 710 797 710 707 q 666 886 710 854 q 537 918 622 918 q 386 892 466 918 q 244 830 306 866 l 238 830 l 267 967 q 405 1010 321 990 q 564 1031 489 1031 q 774 977 697 1031 q 852 832 852 924 q 777 654 852 731 q 590 555 703 576 l 590 548 q 648 528 616 543 q 705 491 681 514 q 748 433 731 468 q 766 350 766 398 q 734 207 766 276 q 645 88 702 138 "},"9":{"x_min":107,"x_max":846,"ha":883,"o":"m 846 687 q 803 412 846 543 q 681 187 760 281 q 484 34 599 89 q 225 -20 369 -20 q 159 -16 188 -20 q 107 -4 130 -12 l 130 117 l 137 117 q 189 101 153 109 q 268 93 224 93 q 527 188 413 93 q 679 433 641 284 q 553 379 612 397 q 419 362 494 362 q 306 377 360 362 q 214 427 253 393 q 151 509 174 460 q 129 629 129 559 q 245 913 129 796 q 534 1031 362 1031 q 765 938 684 1031 q 846 687 846 846 m 711 691 q 694 800 711 756 q 651 872 678 845 q 590 912 625 899 q 517 925 555 925 q 337 844 403 925 q 271 644 271 763 q 321 514 271 559 q 470 469 371 469 q 580 484 521 469 q 695 529 639 500 q 706 601 702 565 q 711 691 711 638 "},"l":{"x_min":39,"x_max":409.859375,"ha":381,"o":"m 409 1055 l 166 0 l 39 0 l 282 1055 l 409 1055 "},"∂":{"x_min":90,"x_max":806,"ha":883,"o":"m 776 442 q 726 280 758 363 q 642 129 694 198 q 511 15 581 51 q 354 -21 442 -21 q 163 52 236 -21 q 90 248 90 125 q 193 524 90 411 q 447 637 297 637 q 562 619 508 637 q 664 557 615 601 q 673 626 669 586 q 678 698 678 666 q 631 868 678 812 q 491 925 584 925 q 373 903 439 925 q 247 846 308 882 l 240 846 l 263 972 q 392 1016 324 1002 q 523 1031 461 1031 q 735 949 665 1031 q 806 713 806 868 q 798 592 806 674 q 776 442 791 510 m 649 463 q 562 514 612 496 q 462 532 513 532 q 289 453 353 532 q 226 253 226 375 q 266 127 226 172 q 373 83 306 83 q 521 149 459 83 q 623 348 582 216 q 636 399 630 372 q 649 463 643 426 "},"4":{"x_min":33,"x_max":821,"ha":883,"o":"m 797 286 l 646 286 l 580 0 l 449 0 l 515 286 l 33 286 l 68 439 l 688 1010 l 814 1010 l 670 389 l 821 389 l 797 286 m 539 389 l 645 846 l 150 389 l 539 389 "},"p":{"x_min":-26,"x_max":807,"ha":865,"o":"m 807 518 q 772 306 807 405 q 679 138 737 207 q 544 26 621 67 q 379 -15 467 -15 q 267 -1 318 -15 q 174 39 216 12 l 101 -279 l -26 -279 l 213 758 l 340 758 l 322 678 q 446 750 385 722 q 580 779 507 779 q 749 710 691 779 q 807 518 807 641 m 673 493 q 637 618 673 574 q 525 662 602 662 q 409 634 469 662 q 297 571 349 606 l 198 141 q 282 106 242 118 q 378 95 322 95 q 504 128 448 95 q 596 217 560 162 q 654 343 635 274 q 673 493 673 413 "},"Ъ":{"x_min":120,"x_max":1032,"ha":1095,"o":"m 888 357 q 877 418 888 390 q 843 463 866 445 q 763 494 809 489 q 626 500 717 500 l 448 500 l 358 111 l 548 111 q 690 120 641 111 q 781 155 738 129 q 861 239 835 188 q 888 357 888 290 m 1032 379 q 988 205 1032 282 q 875 79 945 127 q 740 16 809 33 q 568 0 671 0 l 197 0 l 404 896 l 120 896 l 145 1010 l 565 1010 l 473 611 l 691 611 q 855 598 794 611 q 967 540 916 585 q 1015 471 999 512 q 1032 379 1032 430 "},"‡":{"x_min":119,"x_max":853,"ha":883,"o":"m 747 345 l 474 348 l 418 84 l 329 84 l 392 348 l 119 345 l 139 430 l 411 426 l 476 712 l 203 709 l 223 794 l 495 790 l 552 1055 l 641 1055 l 578 790 l 853 794 l 832 709 l 559 712 l 494 426 l 768 430 l 747 345 "},"√":{"x_min":132,"x_max":1366,"ha":1137,"o":"m 1366 1213 l 585 -102 l 533 -102 l 292 572 l 132 572 l 132 666 l 399 666 l 598 106 l 1252 1213 l 1366 1213 "},"Ю":{"x_min":48,"x_max":1403,"ha":1436,"o":"m 1260 633 q 1191 846 1260 772 q 1000 920 1123 920 q 826 874 903 920 q 695 755 749 829 q 614 582 642 682 q 586 379 586 482 q 653 164 586 239 q 845 90 720 90 q 1015 134 937 90 q 1146 251 1093 178 q 1231 423 1202 327 q 1260 633 1260 518 m 1403 652 q 1363 398 1403 521 q 1249 183 1324 276 q 1065 32 1171 86 q 824 -21 959 -21 q 545 79 645 -21 q 446 361 446 179 q 448 425 446 395 q 456 490 450 454 l 296 490 l 183 0 l 48 0 l 280 1010 l 416 1010 l 322 602 l 481 602 q 557 769 509 691 q 679 909 606 848 q 834 998 746 965 q 1022 1031 923 1031 q 1301 932 1199 1031 q 1403 652 1403 834 "}}}
